<?xml version="1.0" standalone="yes"?>
<svg xmlns="http://www.w3.org/2000/svg" width="1500" height="523">
<path style="fill:#030708; stroke:none;" d="M0 0L0 523L1500 523L1500 0L0 0z"/>
<path style="fill:#2e5472; stroke:none;" d="M320 18C320.162 31.6519 337.464 37.6328 342 50C335.823 52.5636 329.721 59.7619 323 60.3048C318.04 60.7053 313.763 57.1008 309 56.4221C306.142 56.0147 302.03 56.8688 301.377 60.213C300.346 65.484 306.794 67.8854 309.231 71.4591C311.368 74.5909 311.871 79.3894 313 83L317 83C317.76 88.1695 321.28 104.137 329.4 94.6821C333.154 90.3118 332.996 81.4166 333 76L353 67C357.374 76.3707 357.842 90.3345 363.317 98.6821C366.111 102.942 372.856 100.181 374.987 96.6204C377.117 93.0601 376 87.0061 376 83C382.599 81.8985 380.621 76.7342 377 73C386.538 69.1652 373.083 61.8307 377.029 55.3758C381.78 47.6032 394.762 44.851 400.892 37.2708C403.351 34.2302 405.924 28.0112 401.682 25.179C388.323 16.2599 371.46 36.1913 358 33C359.026 26.6885 354.824 26.3281 350.424 23.4599C341.736 17.7977 330.057 15.3391 320 18M301 92C306.907 91.9791 311.223 91.2562 313 85C307.511 85.0617 302.762 86.2961 301 92M301 97C297.298 85.8551 284.563 103.091 296.956 98.5694L301 97M277 106L289 103C285.603 96.8642 278.697 100.344 277 106M221 102L221 125C216.336 125.042 212.556 125.074 211 130L221 129L221 137L195 137L195 133L177 137L177 109L131 109L131 247L130 247L130 161L124 161L124 160C128.081 158.644 127.594 154.762 122.981 155.529C119.053 156.183 116.36 159.257 113 161L113 149L81 149L81 161L76 161L76 184C68.1315 185.218 66.7998 193.803 76 190L76 255C76 263.337 78.42 276.219 75.142 283.961C72.8154 289.456 66.1147 293.363 61.9853 297.518C56.6737 302.862 52.9591 311.768 45 313L47 322L54 322C41.7958 334.428 18.4298 358.719 18 377C37.3866 376.998 47.6661 360.554 60.3002 347.996C67.1419 341.195 75.1787 335.497 82.439 329.154C112.579 302.823 160.545 276.888 201 277L201 274L223 275L224 275L225 271C236.136 270.908 239.498 270.533 249 276C245.44 282.492 239.098 282.175 233 280L233 279L239 276L239 275C230.971 272.655 225.82 278.19 220 283L219 280C216.215 281.013 206.016 284.429 207.497 288.625C208.821 292.375 213.22 292.218 214 297C220.068 294.975 230.581 273.399 235 288L242 286L249 306L239 305L241 299L230 299L232 304C220.826 303.65 202.341 325.683 201 336L196 330C191.316 329.999 185.331 328.727 181.055 330.959C176.985 333.083 172.3 342.15 179.11 344.125C182.506 345.11 186.785 341.944 190 341L194 358C201.298 358.917 202.799 355.078 209.035 354.085C211.554 353.684 221.396 356.287 223.907 357.312C227.023 358.586 235.456 363.664 237.683 366.148C239.976 368.707 239.858 372.642 243.148 374.297C248.14 376.808 261.098 374.906 261.968 383.209C262.269 386.084 256.869 402.472 254.682 404.732C252.315 407.179 247.87 406.488 246.063 409.329C244.682 411.5 245.418 414.601 244.494 417C241.429 424.962 234.991 430.66 227 433L227 434L228 440L232 441L234 455C216.326 454.426 213.922 428.096 213.089 415C212.832 410.971 213.925 405.905 212.397 402.093C209.229 394.192 197.727 390.76 194.782 382C192.512 375.25 201.388 369.849 199.338 364.314C198.356 361.662 194.27 361.529 192.17 360.143C187.943 357.355 182.551 353.561 179 350C165.093 353.125 160.168 336.823 157 326L156 326L160 340C151.912 337.68 149.013 325.331 147 318C139.668 322.266 139.922 331.52 138.339 339C133.458 362.059 138.455 389.544 150.319 409.83C185.543 470.057 284.413 484.766 327 423C320.787 423.233 318.819 414.317 317.428 409C316.492 405.422 313.937 399.52 314.077 396C314.205 392.8 316.843 390.329 316.449 387C316.015 383.333 313.031 380.406 311.818 377C310.764 374.041 311.871 369.208 309.258 367.023C300.895 360.031 289.531 371.53 282.09 365.677C275.953 360.851 268.358 352.035 275 345L275 343L272 342L286.144 322.318L312 319C313.281 325.017 318.549 326.509 324 328C326.991 323.277 341.796 327.1 347 329L332 313L331 313L329 318C323.832 313.907 322.966 305.531 315 307L323 313L323 314C320.303 317.064 319.445 319.385 315 319L318 314C312.984 311.611 308.893 307.725 303.184 311.069C298.978 313.532 297.69 318.976 292.003 318.833C287.43 318.717 282.298 312.652 286.604 308.644C288.994 306.419 294.002 308.446 297 308C290.867 299.599 309.149 295.734 315 294L313 290L309 292L304 284C307.931 282.348 311.858 278.41 316.039 277.854C322.562 276.987 329.72 279.634 336 280.985C349.875 283.971 363.387 287.374 377 291.431C418.584 303.821 460.482 320.672 504 324.83C527.492 327.075 559.17 330.347 582 323.495C587.354 321.888 609.255 320.012 604.906 311.301C600.875 303.227 582.637 305.307 575 304.961C546.13 303.65 517.626 298.637 489 295C490.399 288.698 484.672 285.697 480 282.439C469.082 274.826 458.692 270.65 447.003 265.275C441.039 262.533 436.126 258.109 430 255.514C387.923 237.687 342.277 225.847 297 220L297 154L255 154L255 117L262 116L262 111L221 102M264 112L276 110C273.85 103.524 265.031 106.046 264 112z"/>
<path style="fill:#7a9296; stroke:none;" d="M254 112L255 113L254 112z"/>
<path style="fill:#9caa53; stroke:none;" d="M409 114L416 127L395 125C397.779 129.93 404.722 133.264 410 135L410 136C401.67 135.343 382.464 131.515 379 142L395 146L386 159L411 155L411 156C396.984 159.007 382.978 166.213 381 182L398 177L396 187L400 187C398.164 196.744 394.327 215.555 409 216C409.398 208.245 413.314 198.142 418 192C419.887 198.018 423.164 202.799 430 201C433.012 214.17 435.794 227.595 437.576 241C438.362 246.92 436.883 254.513 440.013 259.895C442.852 264.776 449.764 266.728 455 267L443 218L447 218L455 191L461 192L461 182L480 196C479.301 180.693 474.156 160.932 456 160L456 159L475 164L470 154L488 154C483.408 139.065 462.036 139.126 450 142C456.089 136.227 462.588 133.367 471 133L471 130C458.811 128.937 448.618 125.488 438 134C434.269 120.074 422.923 114.038 409 114z"/>
<path style="fill:#2e5472; stroke:none;" d="M197 130L197 135L209 133C207.854 126.138 202.066 129.255 197 130z"/>
<path style="fill:#7a9296; stroke:none;" d="M228 131L228 138L229 138L228 131z"/>
<path style="fill:#eaf2ee; stroke:none;" d="M229 131L229 138L248 138C247.673 128.033 236.499 131 229 131z"/>
<path style="fill:#9caa53; stroke:none;" d="M247 131L248 132L247 131z"/>
<path style="fill:#030708; stroke:none;" d="M190.667 137.333L191.333 137.667L190.667 137.333z"/>
<path style="fill:#eaf2ee; stroke:none;" d="M229 145L229 155L248 155C247.99 142.315 239.368 145 229 145z"/>
<path style="fill:#9caa53; stroke:none;" d="M247 145L248 146L247 145z"/>
<path style="fill:#7a9296; stroke:none;" d="M228 146L228 155L229 155L228 146z"/>
<path style="fill:#9caa53; stroke:none;" d="M544 160C534.925 149.166 525.347 149 512 149L530 164C520.776 159.173 495.744 154.112 491 168L507 172L500 181L520 179L520 180C503.046 180.352 491.286 193.445 489 210L509 201L508 212L514 211L515 240L519 240C513.866 247.999 509.333 265.855 501.582 270.972C494.063 275.936 472.986 272 464 272L464 273C471.75 278.111 490.19 284.036 490 295L596 306C591.994 299.183 582.782 295.025 576 291.385C556.376 280.853 536.552 277.001 515 273L533.634 231.238L550 221L553 247C565.513 246.599 570.075 230.408 567 220C572.225 219.128 571.984 215.655 572 211L588 220C587.961 206.51 581.226 195.716 569 190L569 189L589 196L584 182L600 181C595.649 171.023 582.725 169.001 573 169L588 160L566 159L577 146C563.929 146 550.436 146.587 544 160z"/>
<path style="fill:#7a9296; stroke:none;" d="M142 147L143 148L142 147z"/>
<path style="fill:#eaf2ee; stroke:none;" d="M143 147L143 180L148 180C148 172.594 151.909 148.487 143 147z"/>
<path style="fill:#9caa53; stroke:none;" d="M147 147L148 148L147 147M158 147L158 164L159 164L158 147z"/>
<path style="fill:#eaf2ee; stroke:none;" d="M159 147L159 164L162 164L161 147L159 147z"/>
<path style="fill:#9caa53; stroke:none;" d="M161 147L162 148L161 147M165 147L165 180L166 180L165 147z"/>
<path style="fill:#eaf2ee; stroke:none;" d="M166 147L166 180L167 180L166 147z"/>
<path style="fill:#9caa53; stroke:none;" d="M142 148L142 180L143 180L142 148z"/>
<path style="fill:#7a9296; stroke:none;" d="M179 150L180 151L179 150z"/>
<path style="fill:#9caa53; stroke:none;" d="M179 157L180 157L180 151L186 151C180.824 148.904 179.156 152.264 179 157z"/>
<path style="fill:#7a9296; stroke:none;" d="M186 150L186 157L179 157L179 158C184.488 157.935 188.549 156.141 186 150M204 150L205 151L204 150z"/>
<path style="fill:#9caa53; stroke:none;" d="M205 150L205 151L209 151L205 150M213 150L213 151L216 151L213 150z"/>
<path style="fill:#eaf2ee; stroke:none;" d="M180 151L180 157L186 157L186 151L180 151M204 151L204 157L209 157L209 151L204 151z"/>
<path style="fill:#7a9296; stroke:none;" d="M209 151L209 157L210 157L209 151z"/>
<path style="fill:#eaf2ee; stroke:none;" d="M213 151L213 157L216 157L216 151L213 151z"/>
<path style="fill:#7a9296; stroke:none;" d="M216 151L216 157L217 157L216 151z"/>
<path style="fill:#9caa53; stroke:none;" d="M229 155L229 156L247 156L229 155z"/>
<path style="fill:#7a9296; stroke:none;" d="M247 155L248 156L247 155z"/>
<path style="fill:#030708; stroke:none;" d="M131 156L132 157L131 156z"/>
<path style="fill:#7a9296; stroke:none;" d="M204 157L204 158L209 158L204 157M213 157L213 158L216 158L213 157z"/>
<path style="fill:#9caa53; stroke:none;" d="M229 157L229 158L247 158L229 157z"/>
<path style="fill:#7a9296; stroke:none;" d="M247 157L248 158L247 157M228 158C228.334 168.164 240.394 165 248 165L248 164L229 164L228 158z"/>
<path style="fill:#eaf2ee; stroke:none;" d="M229 158L229 164L248 164L248 158L229 158z"/>
<path style="fill:#7a9296; stroke:none;" d="M158 164L158 165L162 165L158 164M179 164L180 165L179 164z"/>
<path style="fill:#9caa53; stroke:none;" d="M186 170L186 169L180 169L180 165L185 165C178.739 162.621 178.457 169.752 186 170z"/>
<path style="fill:#7a9296; stroke:none;" d="M185 164L186 169L187 169L185 164M190.667 164.333L191.333 164.667L190.667 164.333M213 164L214 165L213 164z"/>
<path style="fill:#9caa53; stroke:none;" d="M214 164L215 165L214 164z"/>
<path style="fill:#7a9296; stroke:none;" d="M215 164L215 170L216 170L215 164z"/>
<path style="fill:#eaf2ee; stroke:none;" d="M180 165L180 169L186 169L186 165L180 165M190 165L192 169L190 165z"/>
<path style="fill:#9caa53; stroke:none;" d="M191 165L191 168L192 168L191 165z"/>
<path style="fill:#eaf2ee; stroke:none;" d="M213 165L213 169L216 169L216 165L213 165z"/>
<path style="fill:#7a9296; stroke:none;" d="M262 167L262 168L269 168L262 167M272 171L273 171L273 168L279 168C275.501 166.583 273.193 167.404 272 171M282 167L282 168L290 168L282 167z"/>
<path style="fill:#eaf2ee; stroke:none;" d="M262 168L269 171L269 168L262 168z"/>
<path style="fill:#9caa53; stroke:none;" d="M269.333 168.667L269.667 169.333L269.333 168.667z"/>
<path style="fill:#eaf2ee; stroke:none;" d="M273 168L273 171L279 171L279 168L273 168z"/>
<path style="fill:#9caa53; stroke:none;" d="M279.333 168.667L279.667 169.333L279.333 168.667z"/>
<path style="fill:#eaf2ee; stroke:none;" d="M282 168C284.268 171.495 287.732 171.495 290 168L282 168z"/>
<path style="fill:#7a9296; stroke:none;" d="M179 169L180 170L179 169M190.667 169.333L191.333 169.667L190.667 169.333z"/>
<path style="fill:#9caa53; stroke:none;" d="M213.667 169.333L214.333 169.667L213.667 169.333M262 170L263 171L262 170z"/>
<path style="fill:#7a9296; stroke:none;" d="M269 170L270 171L269 170M279 170L280 171L279 170z"/>
<path style="fill:#9caa53; stroke:none;" d="M282 170L283 171L282 170M289 170L290 171L289 170z"/>
<path style="fill:#7a9296; stroke:none;" d="M179 173L180 174L179 173z"/>
<path style="fill:#9caa53; stroke:none;" d="M179 217L180 217L180 174L186 174C179.101 171.207 179.002 177.921 179 183L179 217z"/>
<path style="fill:#7a9296; stroke:none;" d="M186 173L186 217L180 217L180 218L186.397 215.682L187 204L186 173M204 173L205 174L204 173z"/>
<path style="fill:#9caa53; stroke:none;" d="M205 173L205 174L209 174L205 173M213 173L213 174L216 174L213 173M229 173L229 174L248 174L229 173z"/>
<path style="fill:#eaf2ee; stroke:none;" d="M180 174L180 217L186 217L186 174L180 174M204 174C204 176.481 202.524 190.934 206.83 190.079C210.687 189.312 209 176.933 209 174L204 174z"/>
<path style="fill:#7a9296; stroke:none;" d="M209 174L209 190L210 190L209 174z"/>
<path style="fill:#eaf2ee; stroke:none;" d="M213 174L213 217L216 217L216 174L213 174z"/>
<path style="fill:#7a9296; stroke:none;" d="M216 174L216 217L217 217C217 204.781 220.71 185.226 216 174M228 174C229.308 181.835 241.843 179 248 179L248 178L229 178L228 174z"/>
<path style="fill:#eaf2ee; stroke:none;" d="M229 174L229 178L248 178L248 174L229 174z"/>
<path style="fill:#7a9296; stroke:none;" d="M272 176C273.223 179.687 275.308 179.88 279 180L279 179L272 176z"/>
<path style="fill:#eaf2ee; stroke:none;" d="M273 176L273 179L279 179L279 176L273 176z"/>
<path style="fill:#7a9296; stroke:none;" d="M279 176L280 177L279 176z"/>
<path style="fill:#9caa53; stroke:none;" d="M282 176L283 177L282 176z"/>
<path style="fill:#eaf2ee; stroke:none;" d="M282 179L290 179C287.732 175.505 284.268 175.505 282 179z"/>
<path style="fill:#9caa53; stroke:none;" d="M289 176L290 177L289 176M279.333 177.667L279.667 178.333L279.333 177.667z"/>
<path style="fill:#7a9296; stroke:none;" d="M86 179L86 180L89 180L86 179M97 179L97 180L100 180L100 187L96 186L96 187C102.133 187.937 102.117 180.698 97 179M106 179L106 180L109 180L106 179M118 179L118 180L121 180L118 179M282 179L282 180L290 180L282 179z"/>
<path style="fill:#9caa53; stroke:none;" d="M84 180L85 181L84 180z"/>
<path style="fill:#eaf2ee; stroke:none;" d="M93 187C92.553 173.389 76.182 186.941 93 187z"/>
<path style="fill:#9caa53; stroke:none;" d="M92 180L93 181L92 180z"/>
<path style="fill:#030708; stroke:none;" d="M95 180L96 181L95 180z"/>
<path style="fill:#eaf2ee; stroke:none;" d="M96 180C96.1204 183.692 96.3133 185.777 100 187L100 180L96 180z"/>
<path style="fill:#9caa53; stroke:none;" d="M105 180L106 181L105 180z"/>
<path style="fill:#eaf2ee; stroke:none;" d="M110 180C101.225 181.465 109.634 191.152 110 180M117 180C117.155 184.724 118.11 186.619 123 187C122.845 182.276 121.89 180.381 117 180z"/>
<path style="fill:#9caa53; stroke:none;" d="M122 180L123 181L122 180z"/>
<path style="fill:#7a9296; stroke:none;" d="M143 180L143 181L147 181L143 180z"/>
<path style="fill:#9caa53; stroke:none;" d="M190 180L190 191L191 191L190 180z"/>
<path style="fill:#7a9296; stroke:none;" d="M191 180L192 181L191 180M93 181L93 187L94 187L93 181z"/>
<path style="fill:#eaf2ee; stroke:none;" d="M190 181L190 190L191 190L190 181z"/>
<path style="fill:#7a9296; stroke:none;" d="M142 182L143 183L142 182z"/>
<path style="fill:#eaf2ee; stroke:none;" d="M143 182L143 197L148 197C148 191.411 150.011 183.17 143 182z"/>
<path style="fill:#9caa53; stroke:none;" d="M147 182L148 183L147 182z"/>
<path style="fill:#7a9296; stroke:none;" d="M158 182L159 183L158 182z"/>
<path style="fill:#eaf2ee; stroke:none;" d="M159 182L159 197L162 197L161 182L159 182z"/>
<path style="fill:#9caa53; stroke:none;" d="M161 182L162 183L161 182z"/>
<path style="fill:#7a9296; stroke:none;" d="M165 182L166 183L165 182z"/>
<path style="fill:#9caa53; stroke:none;" d="M166 182L166 198L167 198L166 182z"/>
<path style="fill:#eaf2ee; stroke:none;" d="M229 182L229 187L248 187C246.715 179.299 235.05 182 229 182z"/>
<path style="fill:#9caa53; stroke:none;" d="M247 182L248 183L247 182M142 183C142 188.589 139.989 196.83 147 198L147 197L143 197L142 183M158 183C158 187.913 156.436 195.041 161 198L161 197L158 183z"/>
<path style="fill:#eaf2ee; stroke:none;" d="M166 183L166 197L167 197L166 183z"/>
<path style="fill:#7a9296; stroke:none;" d="M228 183L228 187L229 187L228 183M262 184L262 185L269 185L262 184M272 188L273 188L273 185L280 185C276.296 183.462 273.306 184.064 272 188z"/>
<path style="fill:#eaf2ee; stroke:none;" d="M262 185C264.123 188.264 266.877 188.264 269 185L262 185z"/>
<path style="fill:#9caa53; stroke:none;" d="M269 185L268 188L269 185z"/>
<path style="fill:#eaf2ee; stroke:none;" d="M273 185C274.958 187.994 277.042 187.994 279 185L273 185z"/>
<path style="fill:#9caa53; stroke:none;" d="M279 185L278 188L279 185M84 186L85 187L84 186z"/>
<path style="fill:#7a9296; stroke:none;" d="M105 186L106 187L105 186M109 186L110 187L109 186M117 186L118 187L117 186z"/>
<path style="fill:#030708; stroke:none;" d="M400 186L401 187L400 186z"/>
<path style="fill:#7a9296; stroke:none;" d="M85 187L85 188L93 188L85 187M106 187L106 188L109 188L106 187M118 187L118 188L123 188L118 187M229 187L229 188L248 188L229 187z"/>
<path style="fill:#9caa53; stroke:none;" d="M262 187L263 188L262 187z"/>
<path style="fill:#7a9296; stroke:none;" d="M269 187L270 188L269 187z"/>
<path style="fill:#9caa53; stroke:none;" d="M273 187L274 188L273 187z"/>
<path style="fill:#7a9296; stroke:none;" d="M279 187L280 188L279 187z"/>
<path style="fill:#030708; stroke:none;" d="M565 187L566 188L565 187M567 188L568 189L567 188M436 189L442 217L443 217C442.976 208.205 441.881 195.936 436 189z"/>
<path style="fill:#9caa53; stroke:none;" d="M84 190L85 191L84 190z"/>
<path style="fill:#eaf2ee; stroke:none;" d="M93 191C91.6954 190.846 90.2954 190.519 88.9861 190.435C79.6656 189.837 90.3842 199.942 93 191z"/>
<path style="fill:#9caa53; stroke:none;" d="M89 190L90 191L89 190z"/>
<path style="fill:#7a9296; stroke:none;" d="M90 190L91 191L90 190z"/>
<path style="fill:#9caa53; stroke:none;" d="M106 190L107 191L106 190z"/>
<path style="fill:#eaf2ee; stroke:none;" d="M106 195C113.309 193.782 107.218 187.691 106 195z"/>
<path style="fill:#9caa53; stroke:none;" d="M110 190L111 191L110 190z"/>
<path style="fill:#7a9296; stroke:none;" d="M191 190L192 191L191 190z"/>
<path style="fill:#9caa53; stroke:none;" d="M204 190L205 191L204 190M208 190L209 191L208 190z"/>
<path style="fill:#7a9296; stroke:none;" d="M93 191L93 194L94 194L93 191z"/>
<path style="fill:#2e5472; stroke:none;" d="M58 201C63.7198 200.818 67.52 199.089 68 193C62.2751 193.186 59.3506 195.339 58 201z"/>
<path style="fill:#9caa53; stroke:none;" d="M262 193L263 194L262 193z"/>
<path style="fill:#eaf2ee; stroke:none;" d="M262 196L269 196L269 193L262 196z"/>
<path style="fill:#7a9296; stroke:none;" d="M269 193L270 194L269 193M272 193C273.223 196.687 275.308 196.88 279 197L279 196L272 193z"/>
<path style="fill:#eaf2ee; stroke:none;" d="M273 193L273 196L279 196L279 193L273 193z"/>
<path style="fill:#7a9296; stroke:none;" d="M279 193L280 194L279 193z"/>
<path style="fill:#9caa53; stroke:none;" d="M282 193L283 194L282 193z"/>
<path style="fill:#eaf2ee; stroke:none;" d="M282 194L282 195L290 195L282 194z"/>
<path style="fill:#9caa53; stroke:none;" d="M289 193L290 194L289 193M84 194L85 195L84 194z"/>
<path style="fill:#7a9296; stroke:none;" d="M90 194L90 195L93 195L90 194z"/>
<path style="fill:#9caa53; stroke:none;" d="M110 194L111 195L110 194M229 194L229 195L248 196L229 194z"/>
<path style="fill:#7a9296; stroke:none;" d="M247 194L248 195L247 194z"/>
<path style="fill:#9caa53; stroke:none;" d="M269.333 194.667L269.667 195.333L269.333 194.667M279.333 194.667L279.667 195.333L279.333 194.667z"/>
<path style="fill:#030708; stroke:none;" d="M428 194L429 195L428 194z"/>
<path style="fill:#eaf2ee; stroke:none;" d="M229 195L229 196L247 196L229 195z"/>
<path style="fill:#9caa53; stroke:none;" d="M282 195L283 196L282 195M289 195L290 196L289 195z"/>
<path style="fill:#7a9296; stroke:none;" d="M262 196L262 197L269 197L262 196M283 196L283 197L289 197L283 196M85 197L85 198L93 198L93 204C95.5794 197.629 89.9912 197.018 85 197M96 198L96 199L100 198L100 205L96 205C101.801 206.901 102.81 196.959 96 198M105 198L105 199L109 198L105 198M117 198L117 199L123 198L117 198M142 197L143 198L142 197M147 197L148 198L147 197M158 197L159 198L158 197M161 197L162 198L161 197M165 197L166 198L165 197z"/>
<path style="fill:#9caa53; stroke:none;" d="M84 198L85 199L84 198z"/>
<path style="fill:#eaf2ee; stroke:none;" d="M84 205C89.9371 204.979 92.7877 204.466 93 198C87.0629 198.021 84.2123 198.534 84 205M96 205L100 205L100 198C96.3133 199.223 96.1204 201.308 96 205M110 205C109.634 193.848 101.225 203.535 110 205M117 205C121.89 204.619 122.845 202.724 123 198C118.11 198.381 117.155 200.276 117 205z"/>
<path style="fill:#7a9296; stroke:none;" d="M272 205L273 205L273 202L280 202C276.296 200.463 273.306 201.064 272 205M282 201L282 202L290 202L282 201z"/>
<path style="fill:#eaf2ee; stroke:none;" d="M273 202L273 204L279 204L279 202L273 202z"/>
<path style="fill:#9caa53; stroke:none;" d="M279 202L273 204L273 205C275.575 204.958 279.542 205.286 279 202z"/>
<path style="fill:#eaf2ee; stroke:none;" d="M282 202L282 204L290 204L290 202L282 202z"/>
<path style="fill:#9caa53; stroke:none;" d="M204 203L205 204L204 203z"/>
<path style="fill:#eaf2ee; stroke:none;" d="M209 212C208.947 196.975 199.455 210.407 209 212z"/>
<path style="fill:#9caa53; stroke:none;" d="M208 203L209 204L208 203z"/>
<path style="fill:#eaf2ee; stroke:none;" d="M229 203L229 205L247 205L247 203L229 203z"/>
<path style="fill:#9caa53; stroke:none;" d="M247.333 203.667L247.667 204.333L247.333 203.667z"/>
<path style="fill:#2e5472; stroke:none;" d="M50 213C55.7952 212.563 58.5628 209.795 59 204C52.8001 204.201 50.2013 206.8 50 213z"/>
<path style="fill:#9caa53; stroke:none;" d="M92 204L93 205L92 204M105 204L106 205L105 204M122 204L123 205L122 204z"/>
<path style="fill:#7a9296; stroke:none;" d="M146 204L147 205L146 204M209 204L209 211L210 211L209 204M279 204L280 205L279 204M282 204L283 205L282 204z"/>
<path style="fill:#9caa53; stroke:none;" d="M283 204L283 205L289 205L283 204z"/>
<path style="fill:#7a9296; stroke:none;" d="M289 204L290 205L289 204M85 205L85 206L90 206L85 205M106 205L106 206L109 206L106 205M118 205L118 206L121 206L118 205M142 205L143 206L142 205z"/>
<path style="fill:#eaf2ee; stroke:none;" d="M143 205L143 217L148 217C148 211.82 149.267 206.046 143 205z"/>
<path style="fill:#9caa53; stroke:none;" d="M147 205L148 206L147 205M165 205L165 217L166 217L165 205z"/>
<path style="fill:#eaf2ee; stroke:none;" d="M166 205L166 217L167 217L166 205z"/>
<path style="fill:#9caa53; stroke:none;" d="M142 206L142 217L143 217L142 206z"/>
<path style="fill:#030708; stroke:none;" d="M96.6667 210.333L97.3333 210.667L96.6667 210.333M107.667 210.333L108.333 210.667L107.667 210.333M119 210L120 211L119 210z"/>
<path style="fill:#9caa53; stroke:none;" d="M262 210L263 211L262 210z"/>
<path style="fill:#eaf2ee; stroke:none;" d="M262 213L269 213L269 210L262 213z"/>
<path style="fill:#7a9296; stroke:none;" d="M269 210L270 211L269 210M272 210L272 213L273 213L272 210z"/>
<path style="fill:#eaf2ee; stroke:none;" d="M273 210L273 213L279 213L279 210L273 210z"/>
<path style="fill:#7a9296; stroke:none;" d="M279 210L280 211L279 210z"/>
<path style="fill:#9caa53; stroke:none;" d="M282 210L283 211L282 210z"/>
<path style="fill:#eaf2ee; stroke:none;" d="M282 213L290 213C287.732 209.505 284.268 209.505 282 213z"/>
<path style="fill:#9caa53; stroke:none;" d="M289 210L290 211L289 210z"/>
<path style="fill:#eaf2ee; stroke:none;" d="M96 211L96 216L100 216L100 211L96 211z"/>
<path style="fill:#7a9296; stroke:none;" d="M105 211L106 212L105 211z"/>
<path style="fill:#eaf2ee; stroke:none;" d="M105 215L110 216L110 211L105 215M117 211L117 216C120.41 215.737 121.901 215.321 123 212L117 211z"/>
<path style="fill:#7a9296; stroke:none;" d="M121 211L122 212L121 211z"/>
<path style="fill:#9caa53; stroke:none;" d="M204 211L205 212L204 211M269.333 211.667L269.667 212.333L269.333 211.667M279.333 211.667L279.667 212.333L279.333 211.667z"/>
<path style="fill:#7a9296; stroke:none;" d="M100 212L100 215L101 215L100 212z"/>
<path style="fill:#9caa53; stroke:none;" d="M105 212L106 213L105 212z"/>
<path style="fill:#eaf2ee; stroke:none;" d="M190 212L192 217L190 212z"/>
<path style="fill:#9caa53; stroke:none;" d="M191 212L192 213L191 212z"/>
<path style="fill:#7a9296; stroke:none;" d="M228 212C228.704 221.041 241.206 218 248 218L248 217L229 217L228 212z"/>
<path style="fill:#eaf2ee; stroke:none;" d="M229 212L229 217L248 217L248 212L229 212z"/>
<path style="fill:#030708; stroke:none;" d="M532 213C527.326 218.007 523.858 224.12 523 231L524 231L532 213z"/>
<path style="fill:#9caa53; stroke:none;" d="M191.333 214.667L191.667 215.333L191.333 214.667z"/>
<path style="fill:#030708; stroke:none;" d="M95 215L96 216L95 215z"/>
<path style="fill:#9caa53; stroke:none;" d="M105 215L106 216L105 215z"/>
<path style="fill:#7a9296; stroke:none;" d="M122 215L123 216L122 215z"/>
<path style="fill:#030708; stroke:none;" d="M98 216L99 217L98 216M106.667 216.333L107.333 216.667L106.667 216.333M119.667 216.333L120.333 216.667L119.667 216.333z"/>
<path style="fill:#2e5472; stroke:none;" d="M45 217L43 225C48.6922 224.813 50.7992 222.511 52 217L45 217z"/>
<path style="fill:#7a9296; stroke:none;" d="M143 217L143 218L147 218L143 217M166 217L167 218L166 217M190 217L191 218L190 217z"/>
<path style="fill:#9caa53; stroke:none;" d="M204 217L204 218L209 218L204 217z"/>
<path style="fill:#7a9296; stroke:none;" d="M213 217L213 218L216 218L213 217z"/>
<path style="fill:#030708; stroke:none;" d="M254 217L255 218L254 217z"/>
<path style="fill:#7a9296; stroke:none;" d="M255 217L256 218L255 217z"/>
<path style="fill:#eaf2ee; stroke:none;" d="M204 218L204 222L209 222L209 218L204 218z"/>
<path style="fill:#7a9296; stroke:none;" d="M209 218L209 221L210 221L209 218M266 218L266 219L269 219L266 218M273 218L273 219L280 220L280 218L273 218M84 220L85 221L84 220z"/>
<path style="fill:#eaf2ee; stroke:none;" d="M93 226L93 221C82.9321 219.762 83.2448 225.966 93 226z"/>
<path style="fill:#9caa53; stroke:none;" d="M89 220L90 221L89 220z"/>
<path style="fill:#7a9296; stroke:none;" d="M90 220L90 221L93 221L90 220z"/>
<path style="fill:#9caa53; stroke:none;" d="M95 220L96 221L95 220z"/>
<path style="fill:#eaf2ee; stroke:none;" d="M95 226L100 226C99.5229 219.873 95.4771 219.873 95 226z"/>
<path style="fill:#9caa53; stroke:none;" d="M99 220L100 221L99 220z"/>
<path style="fill:#7a9296; stroke:none;" d="M106 220L107 221L106 220z"/>
<path style="fill:#9caa53; stroke:none;" d="M107 220L108 221L107 220z"/>
<path style="fill:#eaf2ee; stroke:none;" d="M110 220C102.566 222.994 111.902 228.345 110 220z"/>
<path style="fill:#7a9296; stroke:none;" d="M110 220L111 221L110 220M117 220L118 221L117 220z"/>
<path style="fill:#eaf2ee; stroke:none;" d="M118.603 221.132C116.085 222.841 118.92 226.665 121.397 224.929C123.888 223.182 121.013 219.496 118.603 221.132z"/>
<path style="fill:#7a9296; stroke:none;" d="M121.667 220.333L122.333 220.667L121.667 220.333M93 221L93 226L94 226L95 221L93 221M100 221L100 226L101 226L100 221M204 222L205 223L204 222z"/>
<path style="fill:#9caa53; stroke:none;" d="M205 222L206 223L205 222z"/>
<path style="fill:#7a9296; stroke:none;" d="M206.667 222.333L207.333 222.667L206.667 222.333M165 224L166 225L165 224z"/>
<path style="fill:#9caa53; stroke:none;" d="M166 224L165 233L166 233L166 224M84 225L85 226L84 225z"/>
<path style="fill:#7a9296; stroke:none;" d="M106 225L107 226L106 225z"/>
<path style="fill:#9caa53; stroke:none;" d="M110 225L111 226L110 225z"/>
<path style="fill:#7a9296; stroke:none;" d="M117 225L118 226L117 225z"/>
<path style="fill:#9caa53; stroke:none;" d="M122 225L123 226L122 225z"/>
<path style="fill:#eaf2ee; stroke:none;" d="M166 225L166 233L167 233L166 225M176 228L177 229L176 228z"/>
<path style="fill:#2e5472; stroke:none;" d="M616 228L616 234C629.283 234.284 629 245.195 629 256L629 325C650.652 325 674.728 327.896 694 315.819C718.752 300.308 720.769 256.138 696.985 238.788C675.083 222.81 641.469 228 616 228M717 228L717 234C730.283 234.284 730 245.195 730 256L730 325L747 325L747 281C757.989 281.754 764.338 302.616 770.05 310.829C779.834 324.898 788.993 325 805 325L805 319C787.775 314.907 780.916 293.44 772 280C778.987 277.765 785.795 275.397 790.121 268.961C797.969 257.286 792.605 239.485 780.996 232.969C763.647 223.232 736.124 228 717 228M802 228L802 234L812 235L814 325L856 325C861.833 325 868.947 326.119 873.895 322.347C879.673 317.943 881.686 308.753 883 302C873.802 299.381 871.527 310.516 864 314.08C854.48 318.588 841.261 317 831 317L831 279L869 279L869 271L831 271L831 236C846.345 236 869.179 232.147 871 253L878 253C878 246.952 879.939 236.503 875.297 231.765C870.131 226.491 860.633 228 854 228L802 228M925 228L895.972 298L886 325C904.178 324.998 897.482 307.938 908.43 298.603C914.726 293.234 935.892 297 944 297C945.383 318.533 962.653 325 981 325L981 319C969.41 316.995 965.795 305.873 962.139 296C953.669 273.13 941.325 251.188 934 228L925 228M985 228L985 325L996 325L996 257L997 257C1003.1 274.885 1013.08 291.599 1020.42 309C1023.68 316.758 1025.58 324.888 1035 325L1066 255L1067 255L1067 302C1067 310.157 1066.25 318.155 1072.6 324.39C1079.05 330.719 1087.71 330 1096 330C1094.79 322.688 1086.04 318.839 1084.46 310C1079.77 283.713 1083 254.648 1083 228L1066.28 229.603L1057.14 248L1035 298L1011.49 247L1002.43 229.028L985 228M1096 253L1104 253C1105.18 238.189 1116.15 236.001 1129 236L1129 325L1147 325L1147 236C1156.25 236 1165.73 236.605 1174.96 235.946C1179.12 235.649 1182.93 232.9 1186.85 235.743C1192.77 240.034 1191 252.63 1191 259L1191 325L1232 325L1250.96 322.347L1261 302L1252 301C1248.37 319.383 1222.96 317 1209 317L1209 279L1246 279L1246 271L1209 271L1209 236C1223.78 236 1246.94 232.479 1247 253L1256 253C1256 245.556 1257.5 234.591 1249.98 230.228C1241.19 225.125 1225.86 228 1216 228L1136 228C1126.09 228 1109.77 224.895 1101.1 230.367C1093.88 234.928 1096 245.693 1096 253M1263 325C1265.94 325 1270.79 325.884 1273.27 323.972C1280.42 318.467 1278.82 304.521 1285.51 298.603C1290.63 294.07 1308.37 296.728 1315 297.019C1323.85 297.408 1324.7 310.699 1330.04 316.536C1338.06 325.288 1347.03 325 1358 325L1358 319C1346.75 316.296 1343.95 306.658 1339.97 297C1330.79 274.706 1317.56 251.464 1312 228C1298.82 228.01 1298.42 239.648 1293.83 250C1287.07 265.251 1280.88 280.749 1274.1 296C1270.12 304.973 1264.22 315.198 1263 325M1362 228L1362 325L1373 325L1373 255L1374 255C1378.3 273.516 1390.1 291.726 1397.97 309C1401.38 316.474 1402.67 324.889 1412 325L1443 255L1444 255L1444 303C1444 311.517 1444.8 320.735 1452.18 326.239C1458.56 330.992 1466.5 330 1474 330C1472.78 322.638 1463.29 319.003 1461.48 310C1456.25 284.065 1460 254.387 1460 228C1455.39 228 1447.17 226.424 1443.43 229.603C1438.89 233.458 1436.8 242.675 1434.38 248C1427.45 263.227 1415.48 281.474 1413 298L1389.17 248L1379.61 229.028L1362 228M39 239L45 239L47 230C40.3252 228.594 39.2682 233.146 39 239z"/>
<path style="fill:#7a9296; stroke:none;" d="M84 229L85 230L84 229z"/>
<path style="fill:#eaf2ee; stroke:none;" d="M84 256L93 256C92.9838 251.43 92.9575 248.697 89 246L93 245L93 230C79.5436 228.346 84.1994 246.018 84 256z"/>
<path style="fill:#9caa53; stroke:none;" d="M89 229L90 230L89 229z"/>
<path style="fill:#7a9296; stroke:none;" d="M90 229L90 230L93 230L90 229M96 229L97 230L96 229z"/>
<path style="fill:#9caa53; stroke:none;" d="M97 229L98 230L97 229z"/>
<path style="fill:#eaf2ee; stroke:none;" d="M96 256L100 256L99 229C93.4131 233.033 96.282 249.329 96 256z"/>
<path style="fill:#9caa53; stroke:none;" d="M99 229L100 230L99 229z"/>
<path style="fill:#7a9296; stroke:none;" d="M105 229L106 230L105 229z"/>
<path style="fill:#eaf2ee; stroke:none;" d="M106 229L106 238L109 238C109.991 233.789 110.419 230.776 106 229z"/>
<path style="fill:#9caa53; stroke:none;" d="M108 229L109 230L108 229z"/>
<path style="fill:#7a9296; stroke:none;" d="M109 229L110 230L109 229M117 229L118 230L117 229z"/>
<path style="fill:#9caa53; stroke:none;" d="M118 229L119 230L118 229z"/>
<path style="fill:#eaf2ee; stroke:none;" d="M117 256C122.612 253.449 123.337 250.557 121 245C123.514 242.804 124.886 228.269 119.259 229.971C115.165 231.209 117.175 251.853 117 256z"/>
<path style="fill:#9caa53; stroke:none;" d="M121 229L122 230L121 229z"/>
<path style="fill:#7a9296; stroke:none;" d="M122 229L123 230L122 229M93 230L93 245L94 245L93 230M100 230L100 245L101 245L100 230z"/>
<path style="fill:#030708; stroke:none;" d="M522 232L521 235L522 232z"/>
<path style="fill:#9caa53; stroke:none;" d="M96 236L97 237L96 236M105 236L106 237L105 236z"/>
<path style="fill:#7a9296; stroke:none;" d="M109 236L110 237L109 236M117 236L118 237L117 236z"/>
<path style="fill:#030708; stroke:none;" d="M179 246L179 247C189.436 246.09 199.578 242.29 210 241.174C235.691 238.422 262.332 237.954 288 241.289C317.33 245.101 346.657 252.825 375 261.039C390.349 265.487 406.154 272.943 422 275C416.432 271.011 408.438 269.464 402 267.139C388.197 262.155 374.178 257.472 360 253.715C299.726 237.739 240.274 229.789 179 246M646 238L646 274L646 302C646 305.272 645.013 310.666 647.028 313.486C649.111 316.402 653.871 315.985 657 315.999C667.724 316.048 677.283 312.175 684.384 303.91C699.829 285.934 696.611 253.275 675.385 241.09C665.778 235.575 656.436 236.68 646 238M747 272C762.881 274.948 786.51 259.362 769.942 243.105C766.281 239.513 751.246 231.87 747.603 239.317C743.81 247.072 747 263.366 747 272z"/>
<path style="fill:#9caa53; stroke:none;" d="M84 237L85 238L84 237z"/>
<path style="fill:#7a9296; stroke:none;" d="M96 237L96 240L97 240L96 237M105 237L106 238L105 237M84 238L85 239L84 238M106 238L106 239L109 239L106 238z"/>
<path style="fill:#9caa53; stroke:none;" d="M84 239L85 240L84 239z"/>
<path style="fill:#7a9296; stroke:none;" d="M117 239L118 240L117 239z"/>
<path style="fill:#2e5472; stroke:none;" d="M37 243L36 253L43 253L44 243L37 243z"/>
<path style="fill:#7a9296; stroke:none;" d="M90 245L90 246L93 246L90 245z"/>
<path style="fill:#9caa53; stroke:none;" d="M121 245L122 246L121 245z"/>
<path style="fill:#7a9296; stroke:none;" d="M122 245L123 246L122 245M84 246L85 247L84 246M89 246L90 247L89 246z"/>
<path style="fill:#9caa53; stroke:none;" d="M96 246L97 247L96 246z"/>
<path style="fill:#7a9296; stroke:none;" d="M117 246L118 247L117 246M121 246L122 247L121 246z"/>
<path style="fill:#9caa53; stroke:none;" d="M84 247L84 250L85 250L84 247M92 247L93 248L92 247z"/>
<path style="fill:#7a9296; stroke:none;" d="M96 247L96 250L97 250L96 247M100 247L100 256L101 256L100 247M105 247L105 250L106 250L105 247z"/>
<path style="fill:#eaf2ee; stroke:none;" d="M106 247C105.431 251.63 104.558 255.091 110 256L108 247L106 247z"/>
<path style="fill:#9caa53; stroke:none;" d="M108 247L109 248L108 247M122 247L123 248L122 247z"/>
<path style="fill:#030708; stroke:none;" d="M173 248L173 249L178 248L173 248z"/>
<path style="fill:#7a9296; stroke:none;" d="M93 248L93 256L94 256L93 248z"/>
<path style="fill:#030708; stroke:none;" d="M169 249L169 250L172 250L169 249z"/>
<path style="fill:#9caa53; stroke:none;" d="M96 250L97 251L96 250M105 250L106 251L105 250z"/>
<path style="fill:#7a9296; stroke:none;" d="M109 250L110 251L109 250M117 250L118 251L117 250z"/>
<path style="fill:#030708; stroke:none;" d="M166.667 250.333L167.333 250.667L166.667 250.333M163.667 251.333L164.333 251.667L163.667 251.333M161 252L162 253L161 252z"/>
<path style="fill:#7a9296; stroke:none;" d="M122 253L123 254L122 253z"/>
<path style="fill:#030708; stroke:none;" d="M158.667 253.333L159.333 253.667L158.667 253.333z"/>
<path style="fill:#9caa53; stroke:none;" d="M120 254L121 255L120 254z"/>
<path style="fill:#7a9296; stroke:none;" d="M121 254L122 255L121 254z"/>
<path style="fill:#030708; stroke:none;" d="M155 254L156 255L155 254z"/>
<path style="fill:#9caa53; stroke:none;" d="M105 255L106 256L105 255M118 255L119 256L118 255z"/>
<path style="fill:#7a9296; stroke:none;" d="M119 255L120 256L119 255z"/>
<path style="fill:#030708; stroke:none;" d="M925 256L911 289L939 289L925 256M1303 256C1297.43 264.866 1290.62 278.643 1289 289L1317 289L1303 256z"/>
<path style="fill:#2e5472; stroke:none;" d="M36 257L36 267L42 267C41.9958 261.502 42.2797 257.723 36 257z"/>
<path style="fill:#030708; stroke:none;" d="M144 259L145 260L144 259z"/>
<path style="fill:#9caa53; stroke:none;" d="M96 260L97 261L96 260z"/>
<path style="fill:#eaf2ee; stroke:none;" d="M97 260C95.8935 263.885 95.847 266.621 100 268L99 260L97 260z"/>
<path style="fill:#9caa53; stroke:none;" d="M99 260L100 261L99 260z"/>
<path style="fill:#eaf2ee; stroke:none;" d="M105 263L109 260L105 263z"/>
<path style="fill:#7a9296; stroke:none;" d="M109.333 260.667L109.667 261.333L109.333 260.667M100 261L100 268L101 268L100 261z"/>
<path style="fill:#9caa53; stroke:none;" d="M105 261L106 262L105 261z"/>
<path style="fill:#7a9296; stroke:none;" d="M108 262L109 263L108 262M441 262L442 263L441 262z"/>
<path style="fill:#9caa53; stroke:none;" d="M105.667 263.333L106.333 263.667L105.667 263.333z"/>
<path style="fill:#7a9296; stroke:none;" d="M107 263L108 264L107 263M442.667 263.333L443.333 263.667L442.667 263.333M445 264L446 265L445 264M447 265L448 266L447 265M449 266L450 267L449 266M96 267L97 268L96 267M451.667 267.333L452.333 267.667L451.667 267.333z"/>
<path style="fill:#030708; stroke:none;" d="M454 267L455 268L454 267z"/>
<path style="fill:#7a9296; stroke:none;" d="M97 268L97 269L100 269L97 268z"/>
<path style="fill:#030708; stroke:none;" d="M122 270L123 271L122 270z"/>
<path style="fill:#7a9296; stroke:none;" d="M232 270L232 271L236 271L232 270z"/>
<path style="fill:#9caa53; stroke:none;" d="M236 270L236 271L242 271L236 270z"/>
<path style="fill:#7a9296; stroke:none;" d="M242 270L243 271L242 270z"/>
<path style="fill:#2e5472; stroke:none;" d="M44 281L43 271C33.3311 271.536 34.9269 280.892 44 281z"/>
<path style="fill:#9caa53; stroke:none;" d="M84 271L85 272L84 271z"/>
<path style="fill:#eaf2ee; stroke:none;" d="M84 280L93 272C85.1454 271.034 84.8438 272.683 84 280z"/>
<path style="fill:#9caa53; stroke:none;" d="M89 271L90 272L89 271z"/>
<path style="fill:#7a9296; stroke:none;" d="M90.6667 271.333L91.3333 271.667L90.6667 271.333M225.333 271.667L225.667 272.333L225.333 271.667z"/>
<path style="fill:#9caa53; stroke:none;" d="M226 271L227 272L226 271z"/>
<path style="fill:#eaf2ee; stroke:none;" d="M221 272C215.075 273.684 209.487 279.101 204 274L203 274C198.222 279.303 194.245 276.578 188 277.315C180.405 278.211 173.368 281.991 166 283L167 286L163 287L162 288L156 300L153 304L150 305L149 312L146 313C147.366 319.596 152.29 339.115 160 338L155 326L158 326C158.567 336.38 166.379 354.079 179 349C181.318 352.835 188.252 357.65 192.17 360.013C194.509 361.424 198.575 361.435 199.824 364.278C201.838 368.862 193.137 375.668 194.913 382C197.363 390.738 208.017 393.819 211.972 401.093C214.104 405.014 212.796 410.703 213.09 415C213.998 428.278 216.516 453.793 234 454L231 441L227 440L229 435L226 434L226 433C234.154 430.68 240.668 426.358 243.772 418C244.777 415.291 243.917 411.667 245.692 409.318C247.833 406.484 252.07 407.276 254.486 404.682C257.551 401.392 256.392 396.949 257.43 393C258.475 389.025 261.525 385.835 263 382L239 374C238.873 362.642 226.201 359.187 217.17 357.257C214.254 356.634 212.271 353.966 209.035 354.426C203.487 355.214 200.372 358.995 194 359C193.996 353.446 194.216 349.296 188 348L189 342C185.801 342.912 181.432 345.66 178.149 343.929C170.151 339.712 179.793 330.291 185 329.275C193.342 327.646 194.551 332.895 201 335C201.573 324.541 220.988 305.806 231 303L229 298L242 298L240 305L248 306L242 287L234 289L234 284C226.776 282.433 224.347 284.526 224 292L214 298C213.558 292.444 208.753 293.044 207.346 288.769C205.701 283.773 216.748 280.012 220 282L221 282L222 282C226.228 276.214 231.815 272.75 239 274L239 277L234 280L241 283L248 279C245.086 270.571 238.237 269.898 230.015 271.147C226.364 271.702 223.587 275.742 221 272z"/>
<path style="fill:#7a9296; stroke:none;" d="M244 271L245 272L244 271M93.3333 272.667L93.6667 273.333L93.3333 272.667M217.333 272.667L217.667 273.333L217.333 272.667M221 272L223 275L221 272z"/>
<path style="fill:#9caa53; stroke:none;" d="M245 272L246 273L245 272M231 273L231 274L237 274L231 273M91 274L92 275L91 274z"/>
<path style="fill:#7a9296; stroke:none;" d="M92 274L93 275L92 274M201 274L201 277L202 277L201 274z"/>
<path style="fill:#9caa53; stroke:none;" d="M202 274L203 275L202 274M204 274L205 275L204 274z"/>
<path style="fill:#7a9296; stroke:none;" d="M213 274L213 275L216 275L213 274z"/>
<path style="fill:#9caa53; stroke:none;" d="M216 274L217 275L216 274M221 274L222 275L221 274z"/>
<path style="fill:#7a9296; stroke:none;" d="M224 274L225 275L224 274M230 274L231 275L230 274z"/>
<path style="fill:#9caa53; stroke:none;" d="M238 274L239 275L238 274z"/>
<path style="fill:#7a9296; stroke:none;" d="M466 274L467 275L466 274z"/>
<path style="fill:#9caa53; stroke:none;" d="M90 275L91 276L90 275z"/>
<path style="fill:#7a9296; stroke:none;" d="M211 275L212 276L211 275M229 275L230 276L229 275M246 275L247 276L246 275z"/>
<path style="fill:#030708; stroke:none;" d="M423 275L423 276L429 278L429 277L423 275z"/>
<path style="fill:#7a9296; stroke:none;" d="M467 275L468 276L467 275z"/>
<path style="fill:#9caa53; stroke:none;" d="M84 276L84 279L85 279L84 276z"/>
<path style="fill:#7a9296; stroke:none;" d="M89 276L90 277L89 276M109 276L110 277L109 276z"/>
<path style="fill:#9caa53; stroke:none;" d="M110 276L109 278L110 276z"/>
<path style="fill:#7a9296; stroke:none;" d="M111 276L112 277L111 276M188.667 276.333L189.333 276.667L188.667 276.333z"/>
<path style="fill:#9caa53; stroke:none;" d="M190.667 276.333L191.333 276.667L190.667 276.333z"/>
<path style="fill:#7a9296; stroke:none;" d="M192 276L193 277L192 276M205 276L205 277L210 277L205 276z"/>
<path style="fill:#9caa53; stroke:none;" d="M210 276L211 277L210 276M227 276L228 277L227 276z"/>
<path style="fill:#7a9296; stroke:none;" d="M228 276L229 277L228 276M238 276L239 277L238 276z"/>
<path style="fill:#9caa53; stroke:none;" d="M247 276L249 278L247 276z"/>
<path style="fill:#7a9296; stroke:none;" d="M248 276L249 277L248 276M469 276L470 277L469 276M88 277L89 278L88 277z"/>
<path style="fill:#eaf2ee; stroke:none;" d="M110 277L111 278L110 277z"/>
<path style="fill:#7a9296; stroke:none;" d="M184.667 277.333L185.333 277.667L184.667 277.333z"/>
<path style="fill:#9caa53; stroke:none;" d="M186 277L187 278L186 277M193 277L193 278L201 278L193 277z"/>
<path style="fill:#7a9296; stroke:none;" d="M225.667 277.333L226.333 277.667L225.667 277.333M236 277L237 278L236 277M471 277L472 278L471 277M87 278L88 279L87 278M179.667 278.333L180.333 278.667L179.667 278.333z"/>
<path style="fill:#9caa53; stroke:none;" d="M181.667 278.333L182.333 278.667L181.667 278.333z"/>
<path style="fill:#7a9296; stroke:none;" d="M224.333 278.667L224.667 279.333L224.333 278.667M234 278L235 279L234 278z"/>
<path style="fill:#9caa53; stroke:none;" d="M235 278L236 279L235 278z"/>
<path style="fill:#7a9296; stroke:none;" d="M248 278L249 279L248 278M312 278L312 279L315 279L312 278z"/>
<path style="fill:#9caa53; stroke:none;" d="M431 278C434.896 283.188 446.803 284.717 453 286C447.349 281.435 438.192 278.628 431 278z"/>
<path style="fill:#7a9296; stroke:none;" d="M435 278L435 279L438 279L435 278M473 278L474 279L473 278z"/>
<path style="fill:#9caa53; stroke:none;" d="M85 279L86 280L85 279z"/>
<path style="fill:#030708; stroke:none;" d="M107 279L108 280L107 279z"/>
<path style="fill:#7a9296; stroke:none;" d="M176 279L177 280L176 279z"/>
<path style="fill:#9caa53; stroke:none;" d="M177 279L178 280L177 279z"/>
<path style="fill:#7a9296; stroke:none;" d="M233 279L234 280L233 279z"/>
<path style="fill:#9caa53; stroke:none;" d="M243 279L244 280L243 279z"/>
<path style="fill:#7a9296; stroke:none;" d="M244 279L245 280L244 279z"/>
<path style="fill:#9caa53; stroke:none;" d="M245.667 279.333L246.333 279.667L245.667 279.333z"/>
<path style="fill:#7a9296; stroke:none;" d="M247 279L248 280L247 279z"/>
<path style="fill:#9caa53; stroke:none;" d="M312 279L311 281L312 279z"/>
<path style="fill:#eaf2ee; stroke:none;" d="M305 284L309 291L314 289C314.832 296.36 300.336 300.422 294 303L294 305L297 306L296 310L287 307C286.49 308.731 286.053 310.188 286.078 312.021C286.302 328.413 302.845 309.764 307.965 309.323C311.6 309.009 314.874 312.484 318 314L316 319L317 320L319 320L322 313L314 307C322.998 304.923 322.77 313.601 329 317L333 312C334.191 317.882 337.53 319.519 343 321L340 316L341 314L338 313L337 310L334 305L335 303L333 299L331 300L332 297L330 295L327 294L323 289C321.06 278.054 312.028 280.682 305 284z"/>
<path style="fill:#9caa53; stroke:none;" d="M314 279L315 280L314 279z"/>
<path style="fill:#7a9296; stroke:none;" d="M316 279L317 280L316 279M430 279L431 280L430 279M438.667 279.333L439.333 279.667L438.667 279.333M475 279L476 280L475 279M84 280L85 281L84 280M172 280L173 281L172 280z"/>
<path style="fill:#9caa53; stroke:none;" d="M173 280L174 281L173 280z"/>
<path style="fill:#7a9296; stroke:none;" d="M216 280L217 281L216 280z"/>
<path style="fill:#9caa53; stroke:none;" d="M219 280L220 281L219 280M222 280L223 281L222 280z"/>
<path style="fill:#7a9296; stroke:none;" d="M223 280L224 281L223 280z"/>
<path style="fill:#9caa53; stroke:none;" d="M234 280L235 281L234 280z"/>
<path style="fill:#7a9296; stroke:none;" d="M242 280L243 281L242 280z"/>
<path style="fill:#9caa53; stroke:none;" d="M315 280L317 282L315 280z"/>
<path style="fill:#7a9296; stroke:none;" d="M317 280L318 281L317 280M433 280L434 281L433 280M441.667 280.333L442.333 280.667L441.667 280.333M477 280L478 281L477 280M170 281L171 282L170 281z"/>
<path style="fill:#9caa53; stroke:none;" d="M214 281L215 282L214 281z"/>
<path style="fill:#7a9296; stroke:none;" d="M215 281L216 282L215 281M219 281L220 282L219 281M237 281L238 282L237 281M309 281L310 282L309 281M318.333 281.667L318.667 282.333L318.333 281.667M436 281L437 282L436 281M444 281L445 282L444 281M478 281L479 282L478 281z"/>
<path style="fill:#030708; stroke:none;" d="M102 282L103 283L102 282z"/>
<path style="fill:#9caa53; stroke:none;" d="M212 282L213 283L212 282z"/>
<path style="fill:#7a9296; stroke:none;" d="M213 282L214 283L213 282M220 282L221 283L220 282M226 282L227 283L226 282z"/>
<path style="fill:#9caa53; stroke:none;" d="M228 282L229 283L228 282z"/>
<path style="fill:#7a9296; stroke:none;" d="M229 282L230 283L229 282M238 282L239 283L238 282M241 282L242 283L241 282M307 282L308 283L307 282z"/>
<path style="fill:#9caa53; stroke:none;" d="M308 282L309 283L308 282M317 282L318 283L317 282z"/>
<path style="fill:#7a9296; stroke:none;" d="M439.667 282.333L440.333 282.667L439.667 282.333M446 282L447 283L446 282M480 282L481 283L480 282M167 283L168 284L167 283z"/>
<path style="fill:#9caa53; stroke:none;" d="M168 283L169 284L168 283z"/>
<path style="fill:#7a9296; stroke:none;" d="M211 283L212 284L211 283M225 283L226 284L225 283z"/>
<path style="fill:#9caa53; stroke:none;" d="M231.667 283.333L232.333 283.667L231.667 283.333z"/>
<path style="fill:#7a9296; stroke:none;" d="M233 283L234 284L233 283M305 283L306 284L305 283z"/>
<path style="fill:#9caa53; stroke:none;" d="M306 283L307 284L306 283M318 283L320 285L320 283L318 283z"/>
<path style="fill:#7a9296; stroke:none;" d="M442.667 283.333L443.333 283.667L442.667 283.333M449 283L450 284L449 283M481 283L482 284L481 283z"/>
<path style="fill:#030708; stroke:none;" d="M164 284L165 285L164 284z"/>
<path style="fill:#9caa53; stroke:none;" d="M164 285L164 286L167 286L164 285z"/>
<path style="fill:#7a9296; stroke:none;" d="M209 284L210 285L209 284M224 284L225 285L224 284M234 284L235 289L236 289L234 284M304.333 284.667L304.667 285.333L304.333 284.667M321 284L322 285L321 284M446 284L447 285L446 284M451 284L452 285L451 284M482 284L483 285L482 284z"/>
<path style="fill:#2e5472; stroke:none;" d="M45 295L45 285C36.4257 285.475 36.9504 294.358 45 295z"/>
<path style="fill:#7a9296; stroke:none;" d="M165 285L166 286L165 285M207 285L208 286L207 285z"/>
<path style="fill:#9caa53; stroke:none;" d="M224.333 285.667L224.667 286.333L224.333 285.667M320 285L323 288L320 285z"/>
<path style="fill:#7a9296; stroke:none;" d="M449.667 285.333L450.333 285.667L449.667 285.333M452 286L452 287L457 287L452 286M484 285L485 286L484 285M164 286L165 287L164 286M206 286L207 287L206 286M239 286L239 287L242 287L239 286M295 295L296 295L292 288L296 290C296.94 285.839 289.915 286.805 295 295M305 286L306 287L305 286M323 286L324 287L323 286z"/>
<path style="fill:#9caa53; stroke:none;" d="M454 286L455 287L454 286z"/>
<path style="fill:#7a9296; stroke:none;" d="M485 286L486 287L485 286z"/>
<path style="fill:#9caa53; stroke:none;" d="M164 287L165 288L164 287z"/>
<path style="fill:#7a9296; stroke:none;" d="M237 287L238 288L237 287z"/>
<path style="fill:#9caa53; stroke:none;" d="M238 287L239 288L238 287M292 288L293 299L301 297L301 296L296 287L292 288z"/>
<path style="fill:#7a9296; stroke:none;" d="M306 287L307 288L306 287M457 287L457 288L460 288L457 287M486 287L487 288L486 287M161 288L161 291L162 291L161 288z"/>
<path style="fill:#9caa53; stroke:none;" d="M163 288L164 289L163 288z"/>
<path style="fill:#7a9296; stroke:none;" d="M206.333 288.667L206.667 289.333L206.333 288.667z"/>
<path style="fill:#9caa53; stroke:none;" d="M234 288L235 289L234 288M236 288L237 289L236 288z"/>
<path style="fill:#7a9296; stroke:none;" d="M307 288L308 289L307 288M323.667 288.333L324.333 288.667L323.667 288.333M461 288L462 289L461 288z"/>
<path style="fill:#9caa53; stroke:none;" d="M161 289L162 290L161 289z"/>
<path style="fill:#7a9296; stroke:none;" d="M223 289L222 292L223 289M312 289L314 291L312 289z"/>
<path style="fill:#9caa53; stroke:none;" d="M313 289L314 290L313 289z"/>
<path style="fill:#7a9296; stroke:none;" d="M325 289L326 290L325 289M489 289L490 290L489 289z"/>
<path style="fill:#9caa53; stroke:none;" d="M160 290L159 294L160 294L160 290M207 290L208 291L207 290z"/>
<path style="fill:#7a9296; stroke:none;" d="M208 290L209 291L208 290M308 290L309 291L308 290M311 290L312 291L311 290z"/>
<path style="fill:#9caa53; stroke:none;" d="M324 290L327 293L324 290z"/>
<path style="fill:#7a9296; stroke:none;" d="M326 290L327 291L326 290z"/>
<path style="fill:#030708; stroke:none;" d="M160 291L161 292L160 291z"/>
<path style="fill:#7a9296; stroke:none;" d="M210.667 291.333L211.333 291.667L210.667 291.333z"/>
<path style="fill:#9caa53; stroke:none;" d="M223 291L224 292L223 291z"/>
<path style="fill:#7a9296; stroke:none;" d="M242 291L243 292L242 291M297.333 291.667L297.667 292.333L297.333 291.667M309 291L310 292L309 291z"/>
<path style="fill:#9caa53; stroke:none;" d="M314 291L315 292L314 291z"/>
<path style="fill:#7a9296; stroke:none;" d="M490 291L491 292L490 291M159 292L160 293L159 292z"/>
<path style="fill:#9caa53; stroke:none;" d="M212 292L213 293L212 292z"/>
<path style="fill:#7a9296; stroke:none;" d="M213 292L214 293L213 292M219 292L220 293L219 292M243 292L244 293L243 292M286 293L286 294L291 293L286 297L286 298L292 293L286 293M314 292L315 293L314 292M158.333 293.667L158.667 294.333L158.333 293.667M218 293L219 294L218 293M245 293L246 294L245 293z"/>
<path style="fill:#9caa53; stroke:none;" d="M286 297L291 293L286 297z"/>
<path style="fill:#7a9296; stroke:none;" d="M298 293L299 294L298 293z"/>
<path style="fill:#9caa53; stroke:none;" d="M327 293L328 294L327 293z"/>
<path style="fill:#7a9296; stroke:none;" d="M328 293L329 294L328 293z"/>
<path style="fill:#9caa53; stroke:none;" d="M157 294L158 295L157 294M246 294L247 295L246 294z"/>
<path style="fill:#7a9296; stroke:none;" d="M299 294L300 295L299 294M314 294L315 295L314 294M489 294L490 295L489 294M156 295L157 296L156 295M217 295L218 296L217 295M285 295L286 296L285 295M300 295L301 296L300 295M305 295L306 296L305 295z"/>
<path style="fill:#9caa53; stroke:none;" d="M306 295L306 296L313 296L306 295z"/>
<path style="fill:#7a9296; stroke:none;" d="M330 295L331 296L330 295M492 295L492 296L495 296L492 295M155 296L156 297L155 296z"/>
<path style="fill:#9caa53; stroke:none;" d="M157 296L158 297L157 296M246 296L247 297L246 296z"/>
<path style="fill:#7a9296; stroke:none;" d="M293 296L294 297L293 296z"/>
<path style="fill:#9caa53; stroke:none;" d="M304 296L305 297L304 296M329.667 296.333L330.333 296.667L329.667 296.333z"/>
<path style="fill:#7a9296; stroke:none;" d="M498 296L498 297L501 297L498 296M214.667 297.333L215.333 297.667L214.667 297.333z"/>
<path style="fill:#9caa53; stroke:none;" d="M216 297L217 298L216 297z"/>
<path style="fill:#7a9296; stroke:none;" d="M246 297L247 298L246 297M300 297L301 298L300 297M303 297L304 298L303 297M330 297L331 298L330 297M332 297L333 298L332 297M504 297L504 298L507 298L504 297z"/>
<path style="fill:#9caa53; stroke:none;" d="M154 298L153 300L153 301C155.158 300.022 155.501 299.812 154 298z"/>
<path style="fill:#030708; stroke:none;" d="M155 298L156 299L155 298z"/>
<path style="fill:#9caa53; stroke:none;" d="M229 298L230 299L229 298z"/>
<path style="fill:#7a9296; stroke:none;" d="M230 298L230 299L234 299L230 298M240 298L241 301L242 301L240 298z"/>
<path style="fill:#9caa53; stroke:none;" d="M241 298L242 299L241 298z"/>
<path style="fill:#7a9296; stroke:none;" d="M245 298L246 299L245 298M299 298L293 299L293 300L299 298z"/>
<path style="fill:#030708; stroke:none;" d="M331 298L332 299L331 298z"/>
<path style="fill:#9caa53; stroke:none;" d="M332 298L333 299L332 298z"/>
<path style="fill:#7a9296; stroke:none;" d="M511 298L511 299L514 299L511 298z"/>
<path style="fill:#2e5472; stroke:none;" d="M41 299C41.7588 304.602 42.8256 308.523 49 309C48.9423 302.63 47.8892 299.226 41 299z"/>
<path style="fill:#7a9296; stroke:none;" d="M153.667 299.333L154.333 299.667L153.667 299.333M229 299L230 300L229 299M239 299L240 300L239 299z"/>
<path style="fill:#9caa53; stroke:none;" d="M244.333 299.667L244.667 300.333L244.333 299.667M331 299L332 300L331 299z"/>
<path style="fill:#7a9296; stroke:none;" d="M518 299L518 300L521 300L518 299z"/>
<path style="fill:#9caa53; stroke:none;" d="M229 300L230 301L229 300z"/>
<path style="fill:#7a9296; stroke:none;" d="M234 300L234 301L239 301L234 300M300 300L301 301L300 300z"/>
<path style="fill:#2e5472; stroke:none;" d="M332 300L333 301L332 300z"/>
<path style="fill:#7a9296; stroke:none;" d="M527 300L527 301L531 301L527 300M152 301L153 302L152 301z"/>
<path style="fill:#9caa53; stroke:none;" d="M230 301L231 302L230 301z"/>
<path style="fill:#7a9296; stroke:none;" d="M240 301L241 302L240 301M245 301L246 302L245 301M295 301L295 302L298 302L295 301z"/>
<path style="fill:#9caa53; stroke:none;" d="M298 301L299 302L298 301M332.667 301.333L333.333 301.667L332.667 301.333z"/>
<path style="fill:#7a9296; stroke:none;" d="M536 301L536 302L540 302L536 301M151 302L153 304L151 302z"/>
<path style="fill:#9caa53; stroke:none;" d="M153 302L154 303L153 302M231 302L230 304L231 302z"/>
<path style="fill:#7a9296; stroke:none;" d="M239 302L240 303L239 302M246 302L247 303L246 302z"/>
<path style="fill:#9caa53; stroke:none;" d="M294 302L295 303L294 302z"/>
<path style="fill:#2e5472; stroke:none;" d="M333 302L334 303L333 302z"/>
<path style="fill:#7a9296; stroke:none;" d="M334 302L335 303L334 302M547 302L547 303L552 303L547 302z"/>
<path style="fill:#9caa53; stroke:none;" d="M151 303L152 304L151 303z"/>
<path style="fill:#7a9296; stroke:none;" d="M227 303L228 304L227 303M229 303L230 304L229 303M231 303L232 304L231 303z"/>
<path style="fill:#9caa53; stroke:none;" d="M239 303L240 304L239 303M247 303L248 304L247 303z"/>
<path style="fill:#7a9296; stroke:none;" d="M293.333 303.667L293.667 304.333L293.333 303.667M335 303L336 304L335 303M559 303L559 304L563 304L559 303M150 304L151 305L150 304z"/>
<path style="fill:#9caa53; stroke:none;" d="M226 304L227 305L226 304z"/>
<path style="fill:#7a9296; stroke:none;" d="M235 304L232 306L232 307L235 308L235 304z"/>
<path style="fill:#9caa53; stroke:none;" d="M236 304L235 307L236 304z"/>
<path style="fill:#7a9296; stroke:none;" d="M237 304L236 307L237 304M239 304L240 305L239 304M248.333 304.667L248.667 305.333L248.333 304.667z"/>
<path style="fill:#9caa53; stroke:none;" d="M334.667 304.333L335.333 304.667L334.667 304.333z"/>
<path style="fill:#7a9296; stroke:none;" d="M570 304L570 305L576 305L570 304M149 305L148 309L149 305M151 305L152 306L151 305z"/>
<path style="fill:#9caa53; stroke:none;" d="M225 305L226 306L225 305z"/>
<path style="fill:#7a9296; stroke:none;" d="M241.667 305.333L242.333 305.667L241.667 305.333z"/>
<path style="fill:#9caa53; stroke:none;" d="M243 305L244 306L243 305M294 305L295 306L294 305M317.667 305.333L318.333 305.667L317.667 305.333z"/>
<path style="fill:#7a9296; stroke:none;" d="M336 305L337 306L336 305M583 305L583 306L587 306L583 305z"/>
<path style="fill:#eaf2ee; stroke:none;" d="M594 305L595 306L594 305z"/>
<path style="fill:#9caa53; stroke:none;" d="M149 306L150 307L149 306M224 306L225 307L224 306z"/>
<path style="fill:#7a9296; stroke:none;" d="M245 306L245 307L248 307L245 306M295 306L296 307L295 306z"/>
<path style="fill:#9caa53; stroke:none;" d="M296 306L297 307L296 306z"/>
<path style="fill:#7a9296; stroke:none;" d="M315 306L316 307L315 306M319 306L320 307L319 306z"/>
<path style="fill:#9caa53; stroke:none;" d="M335 306L337 308L335 306z"/>
<path style="fill:#7a9296; stroke:none;" d="M337 306L338 307L337 306z"/>
<path style="fill:#9caa53; stroke:none;" d="M150 307L151 308L150 307z"/>
<path style="fill:#7a9296; stroke:none;" d="M226 310L227 310L229 308L228 310L229 310L230 308L226 310z"/>
<path style="fill:#9caa53; stroke:none;" d="M232 307L232 309L234 309L234 307L232 307z"/>
<path style="fill:#7a9296; stroke:none;" d="M286 307L287 308L286 307z"/>
<path style="fill:#9caa53; stroke:none;" d="M289 307L290 308L289 307z"/>
<path style="fill:#7a9296; stroke:none;" d="M290 307L291 308L290 307z"/>
<path style="fill:#9caa53; stroke:none;" d="M314 307L315 308L314 307M321 307L322 308L321 307M222 308L223 309L222 308M227 308L227 310L229 308L227 308z"/>
<path style="fill:#7a9296; stroke:none;" d="M285 308L286 309L285 308M292.667 308.333L293.333 308.667L292.667 308.333M296 308L297 309L296 308z"/>
<path style="fill:#9caa53; stroke:none;" d="M308 308L309 309L308 308z"/>
<path style="fill:#7a9296; stroke:none;" d="M309.667 308.333L310.333 308.667L309.667 308.333M315 308L316 309L315 308z"/>
<path style="fill:#9caa53; stroke:none;" d="M322 308L323 309L322 308M148.667 309.333L149.333 309.667L148.667 309.333z"/>
<path style="fill:#7a9296; stroke:none;" d="M221 309L222 310L221 309M232.667 309.333L233.333 309.667L232.667 309.333z"/>
<path style="fill:#9caa53; stroke:none;" d="M285 309L286 310L285 309M295 309L296 310L295 309z"/>
<path style="fill:#7a9296; stroke:none;" d="M307 309L308 310L307 309z"/>
<path style="fill:#9caa53; stroke:none;" d="M311 309L312 310L311 309z"/>
<path style="fill:#7a9296; stroke:none;" d="M316 309L317 310L316 309M323 309L324 310L323 309z"/>
<path style="fill:#2e5472; stroke:none;" d="M337 309L338 310L337 309z"/>
<path style="fill:#7a9296; stroke:none;" d="M220 310L221 311L220 310M285 310L285 316L286 316L285 310z"/>
<path style="fill:#9caa53; stroke:none;" d="M302 310L303 311L302 310z"/>
<path style="fill:#7a9296; stroke:none;" d="M305.667 310.333L306.333 310.667L305.667 310.333M311 310L312 311L311 310z"/>
<path style="fill:#9caa53; stroke:none;" d="M317 310L318 311L317 310z"/>
<path style="fill:#7a9296; stroke:none;" d="M318 310L319 311L318 310M147.667 311.333L148.333 311.667L147.667 311.333z"/>
<path style="fill:#9caa53; stroke:none;" d="M218 311L219 312L218 311z"/>
<path style="fill:#7a9296; stroke:none;" d="M219 311L220 312L219 311z"/>
<path style="fill:#9caa53; stroke:none;" d="M313 311L314 312L313 311M319 311L320 312L319 311z"/>
<path style="fill:#7a9296; stroke:none;" d="M320 311L321 312L320 311z"/>
<path style="fill:#9caa53; stroke:none;" d="M324.333 311.667L324.667 312.333L324.333 311.667M146 312L147 313L146 312M217 312L218 313L217 312z"/>
<path style="fill:#7a9296; stroke:none;" d="M314 312L315 313L314 312z"/>
<path style="fill:#9caa53; stroke:none;" d="M321 312L322 313L321 312z"/>
<path style="fill:#7a9296; stroke:none;" d="M331 312L333 314L333 312L331 312M338 312L339 313L338 312z"/>
<path style="fill:#9caa53; stroke:none;" d="M339 312L340 313L339 312M147 313L148 314L147 313z"/>
<path style="fill:#7a9296; stroke:none;" d="M216 313L217 314L216 313M300 313L301 314L300 313M316 313L317 314L316 313M322 313L323 314L322 313M324 313L325 314L324 313M330 313L331 314L330 313M340 313L341 314L340 313z"/>
<path style="fill:#2e5472; stroke:none;" d="M145 314L146 315L145 314z"/>
<path style="fill:#7a9296; stroke:none;" d="M215 314L216 315L215 314M299 314L300 315L299 314z"/>
<path style="fill:#9caa53; stroke:none;" d="M321 314L322 315L321 314z"/>
<path style="fill:#7a9296; stroke:none;" d="M329.333 314.667L329.667 315.333L329.333 314.667z"/>
<path style="fill:#9caa53; stroke:none;" d="M339 314L340 315L339 314z"/>
<path style="fill:#7a9296; stroke:none;" d="M341 314L340 316L341 314z"/>
<path style="fill:#9caa53; stroke:none;" d="M145 315L147 317L145 315z"/>
<path style="fill:#7a9296; stroke:none;" d="M146 315L147 316L146 315z"/>
<path style="fill:#9caa53; stroke:none;" d="M213 315L214 316L213 315M298 315L299 316L298 315z"/>
<path style="fill:#7a9296; stroke:none;" d="M317 315L318 316L317 315z"/>
<path style="fill:#9caa53; stroke:none;" d="M320 315L321 316L320 315z"/>
<path style="fill:#7a9296; stroke:none;" d="M325 315L326 316L325 315z"/>
<path style="fill:#9caa53; stroke:none;" d="M333 315L334 316L333 315M341 315L342 316L341 315z"/>
<path style="fill:#eaf2ee; stroke:none;" d="M145 316L146 317L145 316z"/>
<path style="fill:#7a9296; stroke:none;" d="M212 316L213 317L212 316z"/>
<path style="fill:#9caa53; stroke:none;" d="M286 316L287 317L286 316z"/>
<path style="fill:#7a9296; stroke:none;" d="M298 316L299 317L298 316M316 316L317 317L316 316M320 316L320 319L321 319L320 316M326 316L327 317L326 316M333 316L334 317L333 316M146 317L147 318L146 317M211 317L211 321L212 321L211 317M286 317L287 318L286 317z"/>
<path style="fill:#9caa53; stroke:none;" d="M297 317L298 318L297 317M327 317L328 318L327 317z"/>
<path style="fill:#7a9296; stroke:none;" d="M328 317L329 318L328 317z"/>
<path style="fill:#9caa53; stroke:none;" d="M334 317L335 318L334 317M342 317L343 318L342 317z"/>
<path style="fill:#7a9296; stroke:none;" d="M288 318L289 319L288 318z"/>
<path style="fill:#9caa53; stroke:none;" d="M295 318L296 319L295 318z"/>
<path style="fill:#7a9296; stroke:none;" d="M296 318L297 319L296 318M315 318L316 319L315 318z"/>
<path style="fill:#9caa53; stroke:none;" d="M335 318L336 319L335 318z"/>
<path style="fill:#7a9296; stroke:none;" d="M341 318L342 319L341 318z"/>
<path style="fill:#9caa53; stroke:none;" d="M147 319L148 320L147 319z"/>
<path style="fill:#7a9296; stroke:none;" d="M299 319L298 321L299 319z"/>
<path style="fill:#9caa53; stroke:none;" d="M300 319L301 320L300 319z"/>
<path style="fill:#eaf2ee; stroke:none;" d="M273 342L276 343C270.557 350.825 274.725 364.863 285.004 367.187C289.474 368.197 294.493 364.256 299 364.012C302.932 363.799 306.891 365.952 311 366L316.753 387L314.639 398L322 423L328 422L327 419L330 419L332 412L335 411L334 409L338 406L338 405L336 404L339 403L340 401C339.47 398.351 339.572 397.393 342 398L341 394L343 395L343 394L342 391L343 389L344 385L346 385L345 381L346 381L346 383L347 383L346 375L348.165 360.996L347 331L346 331L346 333L345 333L346 329C339.035 328.999 328.013 322.463 324 329L308.776 319.318L296 321.505L286.228 322.742L273 342z"/>
<path style="fill:#7a9296; stroke:none;" d="M311 319L312 320L311 319z"/>
<path style="fill:#9caa53; stroke:none;" d="M316 319L317 320L316 319M319 319L320 320L319 319M336 319L337 320L336 319z"/>
<path style="fill:#7a9296; stroke:none;" d="M147.333 320.667L147.667 321.333L147.333 320.667z"/>
<path style="fill:#9caa53; stroke:none;" d="M311 320L312 321L311 320z"/>
<path style="fill:#7a9296; stroke:none;" d="M337 320L337 321L342 321L337 320z"/>
<path style="fill:#030708; stroke:none;" d="M54 321L55 322L54 321z"/>
<path style="fill:#9caa53; stroke:none;" d="M210 321L211 322L210 321z"/>
<path style="fill:#7a9296; stroke:none;" d="M286.667 321.333L287.333 321.667L286.667 321.333z"/>
<path style="fill:#9caa53; stroke:none;" d="M288 321L288 322L298 322L288 321M148 322L149 323L148 322M209 322L210 323L209 322z"/>
<path style="fill:#7a9296; stroke:none;" d="M285 322L286 323L285 322M312.333 322.667L312.667 323.333L312.333 322.667M149 323L150 324L149 323M208 323L209 324L208 323M283 323L284 324L283 323z"/>
<path style="fill:#9caa53; stroke:none;" d="M151 324L152 325L151 324M206 324L207 325L206 324M283 324L284 325L283 324M313 324L314 325L313 324z"/>
<path style="fill:#7a9296; stroke:none;" d="M314 324L315 325L314 324M328 324L328 325L331 325L328 324M151 325L151 333L152 333L151 325M205 325L206 326L205 325M316 325L317 326L316 325M324 325L324 328L325 328L324 325z"/>
<path style="fill:#9caa53; stroke:none;" d="M325 325L326 326L325 325M331 325L332 326L331 325z"/>
<path style="fill:#7a9296; stroke:none;" d="M155 326L155 329L156 329L155 326M157.333 326.667L157.667 327.333L157.333 326.667z"/>
<path style="fill:#9caa53; stroke:none;" d="M203 326L204 327L203 326z"/>
<path style="fill:#7a9296; stroke:none;" d="M204 326L205 327L204 326z"/>
<path style="fill:#9caa53; stroke:none;" d="M318 326L319 327L318 326z"/>
<path style="fill:#7a9296; stroke:none;" d="M319 326L320 327L319 326z"/>
<path style="fill:#9caa53; stroke:none;" d="M332 326L333 327L332 326M202 327L203 328L202 327z"/>
<path style="fill:#7a9296; stroke:none;" d="M282 327L282 330L283 330L282 327M321 327L322 328L321 327z"/>
<path style="fill:#9caa53; stroke:none;" d="M333 327L334 328L333 327z"/>
<path style="fill:#eaf2ee; stroke:none;" d="M344 327L345 328L344 327z"/>
<path style="fill:#9caa53; stroke:none;" d="M323 328L324 329L323 328M335 328L335 329L346 329L335 328M182 329L183 330L182 329z"/>
<path style="fill:#7a9296; stroke:none;" d="M183 329L184 330L183 329M185 329L185 330L195 330L185 329z"/>
<path style="fill:#9caa53; stroke:none;" d="M195 329L196 330L195 329M201 329L202 330L201 329z"/>
<path style="fill:#7a9296; stroke:none;" d="M346 329L347 330L346 329M155 330L156 331L155 330M181 330L182 331L181 330z"/>
<path style="fill:#9caa53; stroke:none;" d="M196 330L197 331L196 330z"/>
<path style="fill:#7a9296; stroke:none;" d="M201 330L201 333L202 333L201 330M281 330L282 331L281 330z"/>
<path style="fill:#2e5472; stroke:none;" d="M345 330L346 331L345 330z"/>
<path style="fill:#9caa53; stroke:none;" d="M346 330L347 331L346 330M155 331L156 332L155 331z"/>
<path style="fill:#7a9296; stroke:none;" d="M158 331L159 332L158 331M179 331L180 332L179 331M196.333 331.667L196.667 332.333L196.333 331.667M280 331L281 332L280 331z"/>
<path style="fill:#9caa53; stroke:none;" d="M345.333 331.667L345.667 332.333L345.333 331.667M156 332L157 333L156 332M177 332L178 333L177 332z"/>
<path style="fill:#7a9296; stroke:none;" d="M178 332L179 333L178 332M279 332L280 333L279 332z"/>
<path style="fill:#9caa53; stroke:none;" d="M152 333L153 334L152 333z"/>
<path style="fill:#7a9296; stroke:none;" d="M157 333L158 334L157 333M159 333L160 334L159 333M278 333L279 334L278 333M152 334L153 335L152 334M158 334L159 335L158 334M160 334L161 335L160 334z"/>
<path style="fill:#9caa53; stroke:none;" d="M176 334L177 335L176 334z"/>
<path style="fill:#7a9296; stroke:none;" d="M277 334L278 335L277 334z"/>
<path style="fill:#2e5472; stroke:none;" d="M346 334L347 335L346 334z"/>
<path style="fill:#7a9296; stroke:none;" d="M153 335L154 336L153 335M159 335L160 336L159 335z"/>
<path style="fill:#9caa53; stroke:none;" d="M161 335L162 336L161 335z"/>
<path style="fill:#7a9296; stroke:none;" d="M176 335L177 336L176 335M198 335L199 336L198 335z"/>
<path style="fill:#9caa53; stroke:none;" d="M199 335L200 336L199 335z"/>
<path style="fill:#7a9296; stroke:none;" d="M200 335L201 336L200 335M276 335L277 336L276 335z"/>
<path style="fill:#9caa53; stroke:none;" d="M346 335L347 339L348 339L346 335z"/>
<path style="fill:#7a9296; stroke:none;" d="M275 336L276 337L275 336M347 336L348 337L347 336M154 337L155 338L154 337M162 337L163 338L162 337M175.333 337.667L175.667 338.333L175.333 337.667M274 337L275 338L274 337z"/>
<path style="fill:#9caa53; stroke:none;" d="M155 338L156 339L155 338M159 338L157 339L157 340L159 338z"/>
<path style="fill:#7a9296; stroke:none;" d="M163 338L164 339L163 338M273 338L274 339L273 338M156 339L157 340L156 339M159 339L160 340L159 339M272.333 340.667L272.667 341.333L272.333 340.667M163 341L164 342L163 341M175 341L176 342L175 341M187 341L188 342L187 341z"/>
<path style="fill:#9caa53; stroke:none;" d="M188 341L189 342L188 341z"/>
<path style="fill:#7a9296; stroke:none;" d="M189 341L189 344L190 344L189 341M162 342L163 343L162 342z"/>
<path style="fill:#9caa53; stroke:none;" d="M175 342L176 343L175 342z"/>
<path style="fill:#7a9296; stroke:none;" d="M185 342L186 343L185 342z"/>
<path style="fill:#9caa53; stroke:none;" d="M186 342L187 343L186 342z"/>
<path style="fill:#7a9296; stroke:none;" d="M274 342L275 343L274 342z"/>
<path style="fill:#2e5472; stroke:none;" d="M485 342C483.259 361.331 463.345 379.472 451.049 393.014C423.421 423.444 390.98 446.851 354 464.625C336.5 473.036 316.801 481.945 297 482C298.873 487.465 306.816 488.922 312 489.995C328.009 493.31 345.035 488.289 360 482.861C409.506 464.904 448.922 433.361 484.576 395.576C494.117 385.464 503.417 374.574 509.506 361.996C511.549 357.776 515.014 350.736 511.397 346.419C505.981 339.957 492.391 342 485 342z"/>
<path style="fill:#7a9296; stroke:none;" d="M176 343L177 344L176 343M183 343L184 344L183 343z"/>
<path style="fill:#9caa53; stroke:none;" d="M184 343L185 344L184 343M275 343L276 344L275 343z"/>
<path style="fill:#030708; stroke:none;" d="M347 343L348 344L347 343z"/>
<path style="fill:#7a9296; stroke:none;" d="M348 343L347 345L349 345L348 343M163 344L164 345L163 344M177.667 344.333L178.333 344.667L177.667 344.333M182 344L183 345L182 344M164 345L165 346L164 345M188 345L190 348L188 345M274 345L275 346L274 345z"/>
<path style="fill:#9caa53; stroke:none;" d="M347 345L347 347L349 347L349 345L347 345z"/>
<path style="fill:#7a9296; stroke:none;" d="M165 346L166 347L165 346M272 346L272 356L273 356L272 346z"/>
<path style="fill:#9caa53; stroke:none;" d="M166 347L167 348L166 347M167 348L168 349L167 348M191 348L192 349L191 348z"/>
<path style="fill:#7a9296; stroke:none;" d="M192 348L193 349L192 348M168.667 349.333L169.333 349.667L168.667 349.333M177.667 349.333L178.333 349.667L177.667 349.333z"/>
<path style="fill:#9caa53; stroke:none;" d="M193 349L194 350L193 349z"/>
<path style="fill:#7a9296; stroke:none;" d="M349 349L349 364L350 364L349 349z"/>
<path style="fill:#2e5472; stroke:none;" d="M1469 358C1468.62 346.505 1449.11 346.006 1443.11 353.765C1430.67 369.856 1460.52 367.809 1460.52 376.079C1460.52 386.539 1443.67 372.886 1441.75 379.303C1440.71 382.787 1445.48 385.01 1448 385.891C1453.9 387.958 1463.01 387.561 1467.49 382.606C1479.38 369.435 1457.75 367.194 1452.34 362.272C1447.45 357.83 1455.03 354.429 1459 355.724C1462.55 356.879 1465.21 357.909 1469 358z"/>
<path style="fill:#7a9296; stroke:none;" d="M171.667 350.333L172.333 350.667L171.667 350.333M176 350L177 351L176 350z"/>
<path style="fill:#030708; stroke:none;" d="M348 350L349 351L348 350z"/>
<path style="fill:#2e5472; stroke:none;" d="M624 350L624 355L636 355L636 386L644 386L644 355L655 355L655 350L624 350M762 350L762 386L770 386L770 371C783.23 371.32 779.497 385.956 792 386C791.869 380.389 788.172 375.474 788.133 370.17C788.084 363.529 794.961 357.149 786.941 351.603C781.18 347.62 768.774 350 762 350M911 350L897 386L916.001 377.009L934 386C933.633 373.594 924.452 350.01 911 350M1034 350C1035.98 360.995 1044.9 385.957 1057 386L1071 350C1059.65 350.04 1055.79 364.304 1053 374C1049.12 363.289 1047.03 350.01 1034 350M1177 350L1177 386L1204 386L1204 380L1185 380L1185 370L1203 370L1203 365L1185 365L1185 355L1204 355L1204 350L1177 350M1312 350L1312 386L1336 386L1336 380L1320 380L1320 350L1312 350z"/>
<path style="fill:#7a9296; stroke:none;" d="M174.667 351.333L175.333 351.667L174.667 351.333M179 351L180 352L179 351M181 352L182 353L181 352z"/>
<path style="fill:#9caa53; stroke:none;" d="M182 352L183 353L182 352z"/>
<path style="fill:#7a9296; stroke:none;" d="M183.667 353.333L184.333 353.667L183.667 353.333M207 353L207 354L210 354L207 353z"/>
<path style="fill:#9caa53; stroke:none;" d="M349 353L349 359L350 359L349 353z"/>
<path style="fill:#7a9296; stroke:none;" d="M186 354L187 355L186 354M206 354L207 355L206 354z"/>
<path style="fill:#9caa53; stroke:none;" d="M212 354L213 355L212 354z"/>
<path style="fill:#7a9296; stroke:none;" d="M213 354L214 355L213 354M187 355L188 356L187 355M205 355L206 356L205 355M214 355L215 356L214 355z"/>
<path style="fill:#030708; stroke:none;" d="M770 355L770 365C785.087 364.998 784.888 355.002 770 355z"/>
<path style="fill:#9caa53; stroke:none;" d="M188 356L189 357L188 356z"/>
<path style="fill:#7a9296; stroke:none;" d="M222 356L223 357L222 356M224 356L225 357L224 356z"/>
<path style="fill:#9caa53; stroke:none;" d="M273 356L274 357L273 356M189 357L190 358L189 357M204 357L205 358L204 357M215 357L216 358L215 357z"/>
<path style="fill:#7a9296; stroke:none;" d="M216 357L216 358L219 358L216 357z"/>
<path style="fill:#9caa53; stroke:none;" d="M219 357L220 358L219 357z"/>
<path style="fill:#7a9296; stroke:none;" d="M225 357L226 358L225 357M274 357L275 358L274 357M194 358L194 359L198 359L194 358z"/>
<path style="fill:#9caa53; stroke:none;" d="M203 358L204 359L203 358z"/>
<path style="fill:#7a9296; stroke:none;" d="M226 358L227 359L226 358M190 359L191 360L190 359z"/>
<path style="fill:#9caa53; stroke:none;" d="M276 359L277 360L276 359z"/>
<path style="fill:#7a9296; stroke:none;" d="M191 360L192 361L191 360M227 360L228 361L227 360M194.667 361.333L195.333 361.667L194.667 361.333z"/>
<path style="fill:#9caa53; stroke:none;" d="M196 361L197 362L196 361z"/>
<path style="fill:#7a9296; stroke:none;" d="M228 361L229 362L228 361z"/>
<path style="fill:#9caa53; stroke:none;" d="M278 361L279 362L278 361z"/>
<path style="fill:#7a9296; stroke:none;" d="M199 362L200 363L199 362z"/>
<path style="fill:#9caa53; stroke:none;" d="M228 362L229 363L228 362z"/>
<path style="fill:#030708; stroke:none;" d="M915 362L911 372L921 372L915 362z"/>
<path style="fill:#7a9296; stroke:none;" d="M200 363L200 367L201 367L200 363M229 363L229 364L236 364L229 363M279 363L280 364L279 363z"/>
<path style="fill:#9caa53; stroke:none;" d="M298 363L298 364L302 364L298 363z"/>
<path style="fill:#030708; stroke:none;" d="M348 363L349 364L348 363z"/>
<path style="fill:#7a9296; stroke:none;" d="M280 364L281 365L280 364M297 364L298 365L297 364M302 364L303 365L302 364z"/>
<path style="fill:#2e5472; stroke:none;" d="M349 364L350 365L349 364z"/>
<path style="fill:#9caa53; stroke:none;" d="M237 365L238 366L237 365z"/>
<path style="fill:#7a9296; stroke:none;" d="M281 365L282 366L281 365z"/>
<path style="fill:#9caa53; stroke:none;" d="M292 365L292 366L295 366L292 365z"/>
<path style="fill:#7a9296; stroke:none;" d="M295.667 365.333L296.333 365.667L295.667 365.333M303 365L304 366L303 365M238 366L239 367L238 366z"/>
<path style="fill:#9caa53; stroke:none;" d="M282 366L283 367L282 366z"/>
<path style="fill:#7a9296; stroke:none;" d="M289 366L290 367L289 366M310.333 366.667L310.667 367.333L310.333 366.667z"/>
<path style="fill:#9caa53; stroke:none;" d="M200 367L201 368L200 367z"/>
<path style="fill:#7a9296; stroke:none;" d="M239 367L240 374L241 374L239 367z"/>
<path style="fill:#9caa53; stroke:none;" d="M283 367L284 368L283 367M287 367L288 368L287 367z"/>
<path style="fill:#7a9296; stroke:none;" d="M288 367L289 368L288 367z"/>
<path style="fill:#9caa53; stroke:none;" d="M347.667 367.333L348.333 367.667L347.667 367.333z"/>
<path style="fill:#7a9296; stroke:none;" d="M199 368L200 369L199 368M347 368L349 371L349 368L347 368M198 369L199 370L198 369z"/>
<path style="fill:#9caa53; stroke:none;" d="M197 370L198 371L197 370z"/>
<path style="fill:#7a9296; stroke:none;" d="M195.333 372.667L195.667 373.333L195.333 372.667z"/>
<path style="fill:#9caa53; stroke:none;" d="M311 372L311 375L312 375L311 372M239 373L240 374L239 373M195 374L196 375L195 374z"/>
<path style="fill:#7a9296; stroke:none;" d="M242 374L243 375L242 374M244 375L244 376L248 376L244 375M311 375L311 378L312 378L311 375z"/>
<path style="fill:#9caa53; stroke:none;" d="M346 375L346 377L348 375L346 375M251 376L251 377L255 377L251 376z"/>
<path style="fill:#7a9296; stroke:none;" d="M255.667 376.333L256.333 376.667L255.667 376.333M347.333 376.667L347.667 377.333L347.333 376.667M194.333 377.667L194.667 378.333L194.333 377.667M257.333 377.667L257.667 378.333L257.333 377.667M312 378L313 379L312 378M346 378L347 379L346 378z"/>
<path style="fill:#9caa53; stroke:none;" d="M194 379L195 380L194 379z"/>
<path style="fill:#7a9296; stroke:none;" d="M258 379L259 380L258 379z"/>
<path style="fill:#9caa53; stroke:none;" d="M259 380L260 381L259 380z"/>
<path style="fill:#7a9296; stroke:none;" d="M260 380L261 381L260 380M313 380L314 381L313 380M262 381L263 382L262 381z"/>
<path style="fill:#9caa53; stroke:none;" d="M314 381L315 382L314 381M345 381L347 384L345 381M194 382L195 383L194 382z"/>
<path style="fill:#7a9296; stroke:none;" d="M314 382L315 383L314 382z"/>
<path style="fill:#9caa53; stroke:none;" d="M315 383L316 384L315 383z"/>
<path style="fill:#030708; stroke:none;" d="M345 383L346 384L345 383z"/>
<path style="fill:#7a9296; stroke:none;" d="M195 384L196 385L195 384M262 384L263 385L262 384M346 384L347 385L346 384M196 385L197 386L196 385z"/>
<path style="fill:#9caa53; stroke:none;" d="M261 385L262 386L261 385z"/>
<path style="fill:#7a9296; stroke:none;" d="M316 385L317 386L316 385M344 385L346 387L344 385z"/>
<path style="fill:#9caa53; stroke:none;" d="M345 385L346 386L345 385z"/>
<path style="fill:#7a9296; stroke:none;" d="M197 386L198 387L197 386M261 386L262 387L261 386M198 387L199 388L198 387M260 387L261 388L260 387M317.333 387.667L317.667 388.333L317.333 387.667M199 388L200 389L199 388M259 388L260 389L259 388z"/>
<path style="fill:#9caa53; stroke:none;" d="M200 389L201 390L200 389M258 389L259 390L258 389M317 389L318 390L317 389z"/>
<path style="fill:#7a9296; stroke:none;" d="M343 389L345 391L343 389z"/>
<path style="fill:#9caa53; stroke:none;" d="M344 389L345 390L344 389z"/>
<path style="fill:#7a9296; stroke:none;" d="M316 390L317 391L316 390M201 391L202 392L201 391M257 391L257 397L258 397L257 391M315 391L316 392L315 391M342.667 391.333L343.333 391.667L342.667 391.333z"/>
<path style="fill:#9caa53; stroke:none;" d="M315 392L316 393L315 392z"/>
<path style="fill:#2e5472; stroke:none;" d="M342 392L343 393L342 392z"/>
<path style="fill:#7a9296; stroke:none;" d="M203 393L204 394L203 393M314 393L315 394L314 393M204 394L205 395L204 394z"/>
<path style="fill:#9caa53; stroke:none;" d="M341 394L343 396L341 394z"/>
<path style="fill:#7a9296; stroke:none;" d="M205 395L206 396L205 395M313 395L313 398L314 398L313 395M341 395L342 396L341 395M206 396L207 397L206 396z"/>
<path style="fill:#9caa53; stroke:none;" d="M207 396L208 397L207 396z"/>
<path style="fill:#7a9296; stroke:none;" d="M342 396L343 397L342 396M208 397L209 398L208 397z"/>
<path style="fill:#9caa53; stroke:none;" d="M340 397L339 399L339 400C341.158 399.022 341.501 398.812 340 397z"/>
<path style="fill:#7a9296; stroke:none;" d="M209 398L210 399L209 398z"/>
<path style="fill:#9caa53; stroke:none;" d="M210 398L211 399L210 398z"/>
<path style="fill:#030708; stroke:none;" d="M340 398L341 399L340 398z"/>
<path style="fill:#7a9296; stroke:none;" d="M211 399L212 400L211 399M314 399L315 400L314 399M212 400L213 401L212 400M315 400L316 401L315 400M340 400L341 401L340 400z"/>
<path style="fill:#9caa53; stroke:none;" d="M256.333 401.667L256.667 402.333L256.333 401.667z"/>
<path style="fill:#7a9296; stroke:none;" d="M316 401L317 402L316 401M338.667 401.333L339.333 401.667L338.667 401.333M317 402L317 411L318 411L317 402M256 403L257 404L256 403z"/>
<path style="fill:#9caa53; stroke:none;" d="M336 405L339 404L336 405M255 404L256 405L255 404z"/>
<path style="fill:#7a9296; stroke:none;" d="M337.667 404.333L338.333 404.667L337.667 404.333M254 405L255 406L254 405M253 406L254 407L253 406M336 406L338 408L336 406z"/>
<path style="fill:#9caa53; stroke:none;" d="M337 406L338 407L337 406z"/>
<path style="fill:#7a9296; stroke:none;" d="M246 407L247 408L246 407M250.667 407.333L251.333 407.667L250.667 407.333M335 407L336 408L335 407M245 408L246 409L245 408z"/>
<path style="fill:#2e5472; stroke:none;" d="M336 408L337 409L336 408z"/>
<path style="fill:#9caa53; stroke:none;" d="M244 409L245 410L244 409z"/>
<path style="fill:#7a9296; stroke:none;" d="M334 409L336 411L334 409z"/>
<path style="fill:#9caa53; stroke:none;" d="M335 409L336 410L335 409z"/>
<path style="fill:#7a9296; stroke:none;" d="M244 410L244 413L245 413L244 410M333.667 411.333L334.333 411.667L333.667 411.333M318 412L319 413L318 412z"/>
<path style="fill:#9caa53; stroke:none;" d="M332.667 412.333L333.333 412.667L332.667 412.333z"/>
<path style="fill:#7a9296; stroke:none;" d="M245 413L245 416L246 416L245 413M319 413L320 414L319 413z"/>
<path style="fill:#2e5472; stroke:none;" d="M332 413L333 414L332 413z"/>
<path style="fill:#7a9296; stroke:none;" d="M333 413L334 414L333 413M320 414L321 415L320 414z"/>
<path style="fill:#9caa53; stroke:none;" d="M331 414L330 416L331 414M321 415L322 416L321 415z"/>
<path style="fill:#7a9296; stroke:none;" d="M332 415L333 416L332 415z"/>
<path style="fill:#9caa53; stroke:none;" d="M244 416L245 417L244 416z"/>
<path style="fill:#7a9296; stroke:none;" d="M321 416L321 423L322 423L321 416M331 416L332 417L331 416M623 416L623 421L1469 421L1469 416L623 416M244 417L245 418L244 417z"/>
<path style="fill:#9caa53; stroke:none;" d="M329.667 417.333L330.333 417.667L329.667 417.333z"/>
<path style="fill:#7a9296; stroke:none;" d="M213 418L214 419L213 418z"/>
<path style="fill:#9caa53; stroke:none;" d="M328 418L327 421L328 418z"/>
<path style="fill:#7a9296; stroke:none;" d="M330 418L331 419L330 418M243 419L244 420L243 419z"/>
<path style="fill:#9caa53; stroke:none;" d="M242 420L243 421L242 420z"/>
<path style="fill:#7a9296; stroke:none;" d="M326 421L327 422L326 421M213 422L213 425L214 425L213 422M241 422L242 423L241 422z"/>
<path style="fill:#9caa53; stroke:none;" d="M325 422L324 424L326 424L325 422z"/>
<path style="fill:#7a9296; stroke:none;" d="M323 423L324 424L323 423z"/>
<path style="fill:#9caa53; stroke:none;" d="M213 425L214 426L213 425z"/>
<path style="fill:#7a9296; stroke:none;" d="M239 425L240 426L239 425M238 426L239 427L238 426z"/>
<path style="fill:#9caa53; stroke:none;" d="M213 427L214 428L213 427z"/>
<path style="fill:#7a9296; stroke:none;" d="M237 427L238 428L237 427M236 428L237 429L236 428z"/>
<path style="fill:#9caa53; stroke:none;" d="M215 429L216 430L215 429M235 429L236 430L235 429M216 430L217 431L216 430M234 430L235 431L234 430z"/>
<path style="fill:#7a9296; stroke:none;" d="M231.667 431.333L232.333 431.667L231.667 431.333z"/>
<path style="fill:#9caa53; stroke:none;" d="M227 432L228 433L227 432z"/>
<path style="fill:#7a9296; stroke:none;" d="M228 432L229 433L228 432M226 433L227 434L226 433z"/>
<path style="fill:#9caa53; stroke:none;" d="M227 434L228 435L227 434z"/>
<path style="fill:#7a9296; stroke:none;" d="M228 434L229 435L228 434M229 435L230 436L229 435M216 436L216 441L217 441L216 436z"/>
<path style="fill:#9caa53; stroke:none;" d="M229 436L230 437L229 436z"/>
<path style="fill:#7a9296; stroke:none;" d="M229 437L230 438L229 437z"/>
<path style="fill:#9caa53; stroke:none;" d="M227 438L228 439L227 438z"/>
<path style="fill:#7a9296; stroke:none;" d="M227 439L228 440L227 439M228.667 440.333L229.333 440.667L228.667 440.333z"/>
<path style="fill:#9caa53; stroke:none;" d="M217 441L218 442L217 441z"/>
<path style="fill:#7a9296; stroke:none;" d="M231 441L231 444L232 444L231 441M218 443L219 444L218 443M219 444L220 445L219 444z"/>
<path style="fill:#9caa53; stroke:none;" d="M220 445L221 446L220 445z"/>
<path style="fill:#7a9296; stroke:none;" d="M230 445L230 448L231 448L230 445M221 447L222 448L221 447z"/>
<path style="fill:#9caa53; stroke:none;" d="M222 448L223 449L222 448z"/>
<path style="fill:#7a9296; stroke:none;" d="M231 448L232 449L231 448z"/>
<path style="fill:#9caa53; stroke:none;" d="M223 449L224 450L223 449z"/>
<path style="fill:#7a9296; stroke:none;" d="M223 450L224 451L223 450M224 451L225 452L224 451M233 451L234 452L233 451M225 452L226 453L225 452z"/>
<path style="fill:#9caa53; stroke:none;" d="M233 452L234 453L233 452M226 453L227 454L226 453M227 454L227 455L233 455L227 454z"/>
<path style="fill:#7a9296; stroke:none;" d="M233 454L234 455L233 454z"/>
<path style="fill:#2e5472; stroke:none;" d="M736.015 454.443C725.922 456.183 722.126 471.1 728.514 478.853C732.002 483.086 738.985 483.426 743.996 482.556C754.122 480.8 757.865 465.889 751.486 458.147C747.998 453.914 741.026 453.579 736.015 454.443M943 474L943 476C936.476 477.963 926.723 471.722 926 481C932.067 482.177 938.915 484.305 944.981 481.968C950.112 479.99 951.927 472.702 947.682 468.804C944.294 465.692 938.223 464.721 934 463C938.177 459.859 946.523 463.409 948.766 460.432C952.052 456.072 943.461 454.396 940.999 454.174C928.962 453.089 919.106 466.256 934.001 471.215C936.991 472.211 940.031 472.91 943 474M1034 457C1026.96 453.961 1001.56 452.751 1011.18 467.606C1013.35 470.961 1023.79 471.028 1023.79 475.076C1023.79 480.337 1006.65 471.64 1010.26 479.702C1013.15 486.164 1032.17 483.566 1033.72 476.816C1035.33 469.81 1029.42 467.723 1024.01 465.844C1022.48 465.316 1018.25 463.91 1019.92 461.484C1023.36 456.48 1031.23 466.108 1034 457M689 455L689 482C695.111 482 704.142 483.676 709.829 481.258C719.482 477.153 719.02 461.84 710.985 456.603C705.528 453.047 695.29 455 689 455M765 455L765 482L772 482L772 469L773 469C776.914 476.584 781.235 481.969 790 482L790 455L783 455L783 469L782 469L773 455L765 455M800 455L802 467L808 467L809 455L800 455M817 455L817 459L826 459L826 482L834 482L834 459L843 459L843 455L817 455M873 455C873 463.409 876.983 482.285 866 484L866 490C886.302 489.998 881 470.334 881 455L873 455M892 455C892 461.442 889.752 473.134 893.179 478.772C896.743 484.636 911.814 484.716 915.276 478.772C918.931 472.495 917 462.011 917 455L909 455C909 459.445 911.391 476.793 904.065 476.793C897.129 476.793 899 459.2 899 455L892 455M957 455L957 459L966 459L966 482L974 482L974 459L983 459L983 455L957 455M1043 455L1043 482L1064 482L1064 478L1051 478L1051 471L1063 471L1063 466L1051 466L1051 459L1064 459L1064 455L1043 455M1074 455L1074 482L1095 482L1095 478L1082 478L1082 471L1095 471L1095 466L1082 466L1082 459L1095 459L1095 455L1074 455M1124 455L1124 482L1132 482L1132 455L1124 455M1140 455L1140 459L1149 459L1149 482L1157 482L1157 459L1166 459L1166 455L1140 455M1174 455L1176 476L1174 482L1182 482L1183 455L1174 455M1212 455L1212 482L1232 482L1232 478L1220 478L1220 455L1212 455M1241 455L1241 482L1249 482L1249 455L1241 455M1257 455C1258.31 462.358 1265.23 484.378 1274.87 481.681C1280.78 480.027 1286.91 460.643 1288 455L1279 455L1273 471L1272 471L1266 455L1257 455M1296 455L1296 482L1317 482L1317 478L1303 478L1303 471L1317 471L1317 466L1303 466L1303 459L1317 459L1317 455L1296 455M1346 455L1346 482L1354 482L1354 455L1346 455M1361 455L1361 459L1370 459L1370 482L1379 482L1379 459L1388 459L1388 455L1361 455M1395 455L1395 482L1404 482L1405 455L1395 455z"/>
<path style="fill:#030708; stroke:none;" d="M698 459L698 478C712.384 477.035 709.766 462.086 698 459M740 460.006C731.685 460.124 732.184 477.44 740.003 477.248C748.075 477.05 748.211 459.89 740 460.006z"/>
</svg>
